<?xml version="1.0" encoding="UTF-8" standalone="no"?>
<!-- Created with Inkscape (http://www.inkscape.org/) -->

<svg
   version="1.1"
   id="svg2"
   width="666.66669"
   height="666.66669"
   viewBox="0 0 666.66669 666.66669"
   sodipodi:docname="4891582.ai"
   xmlns:inkscape="http://www.inkscape.org/namespaces/inkscape"
   xmlns:sodipodi="http://sodipodi.sourceforge.net/DTD/sodipodi-0.dtd"
   xmlns="http://www.w3.org/2000/svg"
   xmlns:svg="http://www.w3.org/2000/svg">
  <defs
     id="defs6">
    <clipPath
       clipPathUnits="userSpaceOnUse"
       id="clipPath16">
      <path
         d="M 0,500 H 500 V 0 H 0 Z"
         id="path14" />
    </clipPath>
    <clipPath
       clipPathUnits="userSpaceOnUse"
       id="clipPath28">
      <path
         d="m 234.724,464.559 h 87.981 v -86.866 h -87.981 z"
         id="path26" />
    </clipPath>
    <clipPath
       clipPathUnits="userSpaceOnUse"
       id="clipPath44">
      <path
         d="m 424.854,266.92 h 58.879 v -58.137 h -58.879 z"
         id="path42" />
    </clipPath>
    <clipPath
       clipPathUnits="userSpaceOnUse"
       id="clipPath60">
      <path
         d="M 32.619,248.646 H 159.385 V 123.492 H 32.619 Z"
         id="path58" />
    </clipPath>
    <clipPath
       clipPathUnits="userSpaceOnUse"
       id="clipPath100">
      <path
         d="M 0,500 H 500 V 0 H 0 Z"
         id="path98" />
    </clipPath>
    <clipPath
       clipPathUnits="userSpaceOnUse"
       id="clipPath168">
      <path
         d="m 365.47,393.412 h 10.284 v -6.157 H 365.47 Z"
         id="path166" />
    </clipPath>
    <clipPath
       clipPathUnits="userSpaceOnUse"
       id="clipPath184">
      <path
         d="m 401.129,393.412 h 10.284 v -6.157 h -10.284 z"
         id="path182" />
    </clipPath>
    <clipPath
       clipPathUnits="userSpaceOnUse"
       id="clipPath504">
      <path
         d="m 346.247,207.995 h 87.74 v -28.941 h -87.74 z"
         id="path502" />
    </clipPath>
  </defs>
  <sodipodi:namedview
     id="namedview4"
     pagecolor="#ffffff"
     bordercolor="#000000"
     borderopacity="0.25"
     inkscape:showpageshadow="2"
     inkscape:pageopacity="0.0"
     inkscape:pagecheckerboard="0"
     inkscape:deskcolor="#d1d1d1" />
  <g
     id="g8"
     inkscape:groupmode="layer"
     inkscape:label="4891582"
     transform="matrix(1.3333333,0,0,-1.3333333,0,666.66667)">
    <g
       id="g10">
      <g
         id="g12"
         clip-path="url(#clipPath16)">
        <g
           id="g18"
           transform="translate(80.9137,126.8034)">
          <path
             d="m 0,0 c -53.205,62.649 -34.561,155.509 -2.895,183.646 31.667,28.137 81.918,43.595 108.843,76.474 26.925,32.879 57.929,56.419 114.611,39.454 56.681,-16.965 55.835,-61.034 72.838,-88.3 C 310.402,184.009 386.21,168.779 381.893,98.807 377.574,28.833 329.459,28.952 307.515,11.713 285.569,-5.526 250.96,-86.937 181.689,-87.784 96.8,-88.823 45.026,-53.02 0,0"
             style="fill:#eeeeff;fill-opacity:1;fill-rule:nonzero;stroke:none"
             id="path20" />
        </g>
        <g
           id="g22">
          <g
             id="g24" />
          <g
             id="g36">
            <g
               clip-path="url(#clipPath28)"
               opacity="0.300003"
               id="g34">
              <g
                 transform="translate(278.7145,443.5622)"
                 id="g32">
                <path
                   d="m 0,0 c 12.515,0 22.727,-10.081 22.727,-22.436 0,-12.355 -10.212,-22.436 -22.727,-22.436 -12.516,0 -22.728,10.081 -22.728,22.436 C -22.728,-10.081 -12.516,0 0,0 Z M -6.085,20.497 -9.081,10.069 c -2.746,-0.747 -5.361,-1.811 -7.784,-3.171 l -9.607,5.275 -8.586,-8.477 5.343,-9.483 c -1.378,-2.392 -2.455,-4.973 -3.212,-7.684 l -10.564,-2.958 v -12.014 l 10.564,-2.957 c 0.757,-2.712 1.834,-5.293 3.212,-7.684 l -5.343,-9.484 8.586,-8.476 9.607,5.274 c 2.423,-1.36 5.038,-2.423 7.784,-3.17 l 2.996,-10.429 h 12.17 l 2.996,10.429 c 2.746,0.747 5.361,1.81 7.784,3.17 l 9.606,-5.274 8.587,8.476 -5.344,9.484 c 1.379,2.391 2.456,4.973 3.213,7.684 l 10.563,2.957 v 12.014 l -10.563,2.958 c -0.757,2.711 -1.834,5.292 -3.213,7.684 l 5.344,9.483 -8.587,8.477 -9.606,-5.275 c -2.423,1.36 -5.038,2.424 -7.784,3.171 L 6.085,20.497 Z"
                   style="fill:none;stroke:#7371fc;stroke-width:1;stroke-linecap:butt;stroke-linejoin:miter;stroke-miterlimit:10;stroke-dasharray:none;stroke-opacity:1"
                   id="path30" />
              </g>
            </g>
          </g>
        </g>
        <g
           id="g38">
          <g
             id="g40" />
          <g
             id="g52">
            <g
               clip-path="url(#clipPath44)"
               opacity="0.300003"
               id="g50">
              <g
                 transform="translate(454.2936,252.7805)"
                 id="g48">
                <path
                   d="m 0,0 c 8.327,0 15.123,-6.708 15.123,-14.929 0,-8.221 -6.796,-14.929 -15.123,-14.929 -8.328,0 -15.123,6.708 -15.123,14.929 C -15.123,-6.708 -8.328,0 0,0 Z M -4.049,13.639 -6.043,6.7 C -7.87,6.203 -9.61,5.496 -11.223,4.59 l -6.391,3.51 -5.714,-5.641 3.556,-6.31 c -0.917,-1.591 -1.634,-3.309 -2.138,-5.112 l -7.029,-1.969 v -7.994 l 7.029,-1.968 c 0.504,-1.805 1.221,-3.522 2.138,-5.113 l -3.556,-6.311 5.714,-5.64 6.391,3.51 c 1.613,-0.906 3.353,-1.613 5.18,-2.11 l 1.994,-6.94 h 8.098 l 1.994,6.94 c 1.827,0.497 3.567,1.204 5.179,2.11 l 6.392,-3.51 5.714,5.64 -3.556,6.311 c 0.917,1.591 1.634,3.309 2.138,5.113 l 7.029,1.968 v 7.994 l -7.029,1.969 c -0.504,1.803 -1.221,3.521 -2.138,5.112 L 23.328,2.459 17.614,8.1 11.222,4.59 C 9.61,5.496 7.87,6.203 6.043,6.7 l -1.994,6.939 z"
                   style="fill:none;stroke:#7371fc;stroke-width:1;stroke-linecap:butt;stroke-linejoin:miter;stroke-miterlimit:10;stroke-dasharray:none;stroke-opacity:1"
                   id="path46" />
              </g>
            </g>
          </g>
        </g>
        <g
           id="g54">
          <g
             id="g56" />
          <g
             id="g68">
            <g
               clip-path="url(#clipPath60)"
               opacity="0.300003"
               id="g66">
              <g
                 transform="translate(96.0021,218.5095)"
                 id="g64">
                <path
                   d="m 0,0 c 18.096,0 32.861,-14.576 32.861,-32.44 0,-17.864 -14.765,-32.44 -32.861,-32.44 -18.096,0 -32.861,14.576 -32.861,32.44 C -32.861,-14.576 -18.096,0 0,0 Z M -8.798,29.637 -13.13,14.559 c -3.971,-1.08 -7.752,-2.619 -11.255,-4.585 L -38.274,17.601 -50.69,5.344 -42.964,-8.368 c -1.993,-3.458 -3.551,-7.191 -4.645,-11.111 l -15.274,-4.276 v -17.371 l 15.274,-4.276 c 1.094,-3.92 2.652,-7.653 4.645,-11.111 l -7.726,-13.712 12.416,-12.256 13.889,7.627 c 3.503,-1.967 7.284,-3.504 11.255,-4.584 l 4.332,-15.08 H 8.798 l 4.332,15.08 c 3.972,1.08 7.752,2.617 11.255,4.584 l 13.89,-7.627 12.416,12.256 -7.727,13.712 c 1.994,3.458 3.551,7.191 4.645,11.111 l 15.274,4.276 v 17.371 l -15.274,4.276 c -1.094,3.92 -2.651,7.653 -4.645,11.111 L 50.691,5.344 38.275,17.601 24.385,9.974 C 20.882,11.94 17.102,13.479 13.13,14.559 L 8.798,29.637 Z"
                   style="fill:none;stroke:#7371fc;stroke-width:1;stroke-linecap:butt;stroke-linejoin:miter;stroke-miterlimit:10;stroke-dasharray:none;stroke-opacity:1"
                   id="path62" />
              </g>
            </g>
          </g>
        </g>
        <g
           id="g70"
           transform="translate(243.7086,54.572)">
          <path
             d="m 0,0 v 0 c 2.255,5.201 6.51,9.353 11.866,11.577 l 0.166,0.069 -0.72,0.322 C 6.292,14.208 2.3,18.16 0.1,23.068 L 0,23.292 -0.556,22.194 c -2.137,-4.215 -5.624,-7.648 -9.942,-9.788 l -1.535,-0.76 0.093,-0.039 C -6.801,9.489 -2.66,5.595 -0.325,0.683 Z"
             style="fill:#32338c;fill-opacity:1;fill-rule:nonzero;stroke:none"
             id="path72" />
        </g>
        <g
           id="g74"
           transform="translate(258.8453,47.4323)">
          <path
             d="M 0,0 V 0 C 1.128,2.601 3.255,4.676 5.933,5.788 L 6.017,5.823 5.655,5.983 C 3.146,7.104 1.15,9.08 0.05,11.534 L 0,11.646 -0.278,11.097 C -1.347,8.989 -3.09,7.272 -5.249,6.203 L -6.017,5.823 -5.971,5.804 C -3.4,4.744 -1.33,2.797 -0.162,0.341 Z"
             style="fill:#7371fc;fill-opacity:1;fill-rule:nonzero;stroke:none"
             id="path76" />
        </g>
        <g
           id="g78"
           transform="translate(453.0338,347.9455)">
          <path
             d="m 0,0 v 0 c -1.687,3.889 -4.867,6.992 -8.872,8.655 l -0.124,0.052 0.539,0.241 c 3.753,1.675 6.737,4.629 8.383,8.3 L 0,17.414 0.416,16.594 C 2.013,13.442 4.62,10.875 7.849,9.275 L 8.996,8.707 8.927,8.679 C 5.085,7.095 1.988,4.183 0.243,0.511 Z"
             style="fill:#7371fc;fill-opacity:1;fill-rule:nonzero;stroke:none"
             id="path80" />
        </g>
        <g
           id="g82"
           transform="translate(441.7164,342.6076)">
          <path
             d="m 0,0 v 0 c -0.843,1.944 -2.434,3.496 -4.436,4.328 l -0.062,0.026 0.269,0.12 c 1.877,0.837 3.37,2.315 4.192,4.15 L 0,8.707 0.208,8.297 C 1.007,6.721 2.311,5.437 3.925,4.638 L 4.499,4.354 4.464,4.339 C 2.543,3.547 0.995,2.091 0.122,0.255 Z"
             style="fill:#32338c;fill-opacity:1;fill-rule:nonzero;stroke:none"
             id="path84" />
        </g>
        <g
           id="g86"
           transform="translate(53.693,260.382)">
          <path
             d="m 0,0 v 0 c -1.687,3.889 -4.867,6.992 -8.872,8.655 l -0.124,0.052 0.538,0.24 c 3.754,1.676 6.738,4.63 8.383,8.3 L 0,17.414 0.416,16.593 C 2.013,13.442 4.621,10.875 7.849,9.275 L 8.996,8.707 8.927,8.678 C 5.084,7.094 1.988,4.182 0.243,0.51 Z"
             style="fill:#7371fc;fill-opacity:1;fill-rule:nonzero;stroke:none"
             id="path88" />
        </g>
        <g
           id="g90"
           transform="translate(42.3761,255.0441)">
          <path
             d="m 0,0 v 0 c -0.843,1.944 -2.434,3.496 -4.436,4.327 l -0.062,0.026 0.269,0.12 c 1.877,0.838 3.369,2.315 4.191,4.15 L 0,8.707 0.208,8.296 C 1.006,6.721 2.31,5.437 3.924,4.637 L 4.498,4.353 4.463,4.339 C 2.542,3.547 0.994,2.091 0.121,0.255 Z"
             style="fill:#32338c;fill-opacity:1;fill-rule:nonzero;stroke:none"
             id="path92" />
        </g>
      </g>
    </g>
    <g
       id="g94">
      <g
         id="g96"
         clip-path="url(#clipPath100)">
        <g
           id="g102"
           transform="translate(357.7955,384.3073)">
          <path
             d="m 0,0 c 7.365,-0.939 14.439,-3.349 21.03,-6.768 19.158,-9.936 36.389,-23.57 50.464,-39.93 5.683,-6.605 11.047,-14.118 11.938,-22.785 1.02,-9.925 -3.968,-19.368 -8.801,-28.098 -4.024,-7.268 -8.877,-15.208 -16.913,-17.317 -6.585,-1.728 -13.484,1.034 -19.432,4.345 -23.254,12.942 -40.691,35.033 -50.695,59.694 -4.861,11.979 -6.666,23.357 -5.838,36.187 0.231,3.591 -9.178,3.923 -6.652,6.767 C -21.307,-3.857 -10.103,1.288 0,0"
             style="fill:#32338c;fill-opacity:1;fill-rule:nonzero;stroke:none"
             id="path104" />
        </g>
        <g
           id="g106"
           transform="translate(416.6735,362.7126)">
          <path
             d="m 0,0 c -0.769,-1.039 -1.617,-2.021 -2.544,-2.916 -3.175,-3.065 -7.102,-5.261 -11.189,-6.921 -3.033,-1.231 -6.242,-2.197 -9.513,-2.133 -0.364,0.008 -0.73,0.034 -1.094,0.07 0.159,-0.63 0.393,-1.234 0.778,-1.755 1.208,-1.64 3.458,-2.061 5.493,-2.179 5.466,-0.32 11.006,0.641 16.046,2.784 0.548,0.234 1.124,0.508 1.433,1.018 0.316,0.519 0.287,1.17 0.254,1.777 -0.191,3.492 0,6.89 0.336,10.255"
             style="fill:#f8ab73;fill-opacity:1;fill-rule:nonzero;stroke:none"
             id="path108" />
        </g>
        <g
           id="g110"
           transform="translate(402.9401,352.8757)">
          <path
             d="m 0,0 c 4.088,1.66 8.015,3.855 11.189,6.921 0.927,0.894 1.776,1.877 2.544,2.916 0.555,5.549 1.505,11.007 1.795,16.648 C 9.842,27.82 0.658,21.919 -3.304,18.194 -8.41,13.393 -11.618,6.338 -10.861,-0.629 c 0.052,-0.48 0.134,-0.964 0.255,-1.434 0.364,-0.036 0.729,-0.062 1.093,-0.07 C -6.241,-2.197 -3.032,-1.231 0,0"
             style="fill:#fe814b;fill-opacity:1;fill-rule:nonzero;stroke:none"
             id="path112" />
        </g>
        <g
           id="g114"
           transform="translate(441.2506,404.5349)">
          <path
             d="m 0,0 c 3.465,4.871 6.966,9.808 9.103,15.391 2.136,5.582 2.793,11.973 0.505,17.495 -2.288,5.522 -7.977,9.827 -13.932,9.314 1.868,3.832 -0.406,8.084 -3.53,10.985 -3.125,2.901 -7.421,4.182 -11.635,4.831 -11.926,1.839 -24.089,-0.662 -36.144,-0.133 -4.447,0.196 -9.004,0.846 -12.87,3.053 -3.866,2.207 -6.932,6.244 -6.93,10.695 -1.559,-3.388 -3.306,-7.486 -3.046,-11.208 0.259,-3.721 2.293,-7.504 5.729,-8.956 -3.463,-0.978 -7.078,1.159 -9.325,3.97 -2.248,2.81 -3.137,6.486 -3.375,10.077 -3.807,-2.401 -6.443,-6.379 -7.862,-10.65 -1.291,-3.89 -1.968,-8.063 -1.288,-12.104 0.681,-4.042 2.843,-7.94 6.299,-10.143 -1.648,-0.279 -3.426,-0.453 -4.967,0.196 -0.101,-2.281 1.2,-4.454 2.968,-5.898 1.768,-1.443 3.959,-2.261 6.146,-2.915 7.502,-2.247 15.383,-2.854 23.069,-4.35 C -42.936,16.118 -26.173,7.716 -8.922,1.064 -6.506,0.132 -2.514,-0.621 0,0"
             style="fill:#fe642f;fill-opacity:1;fill-rule:nonzero;stroke:none"
             id="path116" />
        </g>
        <g
           id="g118"
           transform="translate(422.319,407.2507)">
          <path
             d="m 0,0 c -2.597,9.214 -1.225,19.135 1.653,28.266 -9.068,-8.541 -22.417,-10.643 -34.761,-8.969 4.112,2 7.834,4.8 10.895,8.198 -12.27,0.798 -24.927,-2.187 -37.168,-1.047 -1.401,-4.24 -2.307,-8.649 -2.805,-12.732 -1.073,-8.796 -0.381,-17.729 1.077,-26.47 1.591,-9.536 4.244,-19.225 10.281,-26.777 6.036,-7.551 16.133,-12.504 25.5,-10.116 3.494,0.891 6.681,2.719 9.623,4.803 10.836,7.676 18.706,18.921 23.989,31.158 C 4.36,-10.054 1.457,-5.169 0,0"
             style="fill:#f8ab74;fill-opacity:1;fill-rule:nonzero;stroke:none"
             id="path120" />
        </g>
        <g
           id="g122"
           transform="translate(400.1061,434.7453)">
          <path
             d="m 0,0 c -3.062,-3.397 -6.783,-6.198 -10.896,-8.198 12.345,-1.674 25.694,0.428 34.762,8.969 -2.878,-9.13 -4.25,-19.051 -1.653,-28.266 1.457,-5.169 4.36,-10.054 8.284,-13.686 0.687,1.59 1.334,3.193 1.934,4.81 2.579,6.959 4.446,14.268 4.511,21.69 0.065,7.422 -1.769,14.992 -6.053,21.053 -6.035,8.538 -16.282,13.249 -26.557,15.181 -5.019,0.943 -10.215,1.311 -15.225,0.321 -6.67,-1.319 -15.754,-5.069 -20.08,-10.686 C -33.668,7.689 -35.692,3.416 -37.168,-1.046 -24.927,-2.187 -12.271,0.798 0,0"
             style="fill:#fe642f;fill-opacity:1;fill-rule:nonzero;stroke:none"
             id="path124" />
        </g>
        <g
           id="g126"
           transform="translate(425.4987,407.196)">
          <path
             d="m 0,0 c -1.433,-3.818 -1.436,-8.053 -0.707,-12.065 0.563,-3.097 1.825,-6.446 4.676,-7.78 2.106,-0.985 4.669,-0.596 6.69,0.555 2.021,1.15 3.575,2.972 4.895,4.886 1.992,2.889 3.573,6.149 3.979,9.634 0.405,3.487 -0.481,7.224 -2.881,9.785 C 14.31,7.515 10.185,9.336 6.949,7.84 3.69,6.334 1.246,3.321 0,0"
             style="fill:#f8ab73;fill-opacity:1;fill-rule:nonzero;stroke:none"
             id="path128" />
        </g>
        <g
           id="g130"
           transform="translate(440.5348,408.4753)">
          <path
             d="M 0,0 C -1.024,1.321 -2.737,1.841 -4.282,1.658 -5.851,1.525 -7.236,0.6 -8.221,-0.596 c -1.007,-1.201 -1.661,-2.657 -2.06,-4.196 -0.423,-1.538 -0.59,-3.155 -0.802,-4.785 l -0.977,0.413 c 0.984,1.173 2.437,2.148 4.14,2.039 0.829,-0.053 1.648,-0.454 2.209,-1.041 0.57,-0.59 0.909,-1.336 1.074,-2.096 0.153,-0.763 0.143,-1.563 -0.099,-2.305 -0.238,-0.738 -0.646,-1.392 -1.163,-1.933 -1.051,-1.064 -2.403,-1.734 -3.799,-2.039 1.323,0.524 2.568,1.287 3.413,2.375 0.409,0.542 0.75,1.141 0.901,1.78 0.162,0.63 0.123,1.307 -0.046,1.929 -0.339,1.255 -1.348,2.279 -2.553,2.307 -1.203,0.04 -2.417,-0.712 -3.22,-1.711 l -1.18,-1.469 0.204,1.881 c 0.177,1.636 0.404,3.302 0.861,4.942 0.464,1.63 1.233,3.24 2.425,4.506 1.175,1.255 2.818,2.198 4.577,2.228 C -2.61,2.255 -0.806,1.488 0,0"
             style="fill:#32338c;fill-opacity:1;fill-rule:nonzero;stroke:none"
             id="path132" />
        </g>
        <g
           id="g134"
           transform="translate(388.7047,417.6071)">
          <path
             d="m 0,0 c 0.91,-4.556 0.865,-9.316 0.036,-13.919 -0.829,-4.605 -2.451,-9.082 -4.834,-13.095 l -0.124,0.419 c 0.682,-0.41 1.391,-0.788 2.139,-1.089 0.748,-0.301 1.523,-0.54 2.319,-0.729 -0.817,0.043 -1.632,0.184 -2.429,0.401 -0.796,0.217 -1.586,0.495 -2.33,0.872 l -0.26,0.133 0.136,0.287 c 1.974,4.153 3.429,8.515 4.317,13.002 C -0.144,-9.229 0.17,-4.635 0,0"
             style="fill:#32338c;fill-opacity:1;fill-rule:nonzero;stroke:none"
             id="path136" />
        </g>
        <g
           id="g138"
           transform="translate(385.5778,376.4025)">
          <path
             d="M 0,0 C 1.065,-0.684 2.188,-1.161 3.337,-1.269 6.468,-1.563 9.42,1.297 11.489,4.019 7.331,4.303 3.075,2.812 0,0"
             style="fill:#fe632e;fill-opacity:1;fill-rule:nonzero;stroke:none"
             id="path140" />
        </g>
        <g
           id="g142"
           transform="translate(387.7457,381.6032)">
          <path
             d="m 0,0 c -3.992,0.413 -9.911,3.992 -9.911,3.992 0,0 3.381,-6.393 7.743,-9.193 3.075,2.812 7.331,4.304 11.489,4.019 1.796,2.364 2.927,4.623 2.927,4.623 C 12.248,3.441 3.991,-0.413 0,0"
             style="fill:#32338c;fill-opacity:1;fill-rule:nonzero;stroke:none"
             id="path144" />
        </g>
        <g
           id="g146"
           transform="translate(377.1432,408.2883)">
          <path
             d="m 0,0 c 0.105,-2.128 -0.917,-3.908 -2.284,-3.976 -1.366,-0.067 -2.56,1.603 -2.665,3.731 -0.106,2.128 0.917,3.909 2.284,3.976 C -1.299,3.799 -0.105,2.128 0,0"
             style="fill:#32328c;fill-opacity:1;fill-rule:nonzero;stroke:none"
             id="path148" />
        </g>
        <g
           id="g150"
           transform="translate(404.9508,407.7653)">
          <path
             d="m 0,0 c 0.105,-2.128 -0.917,-3.909 -2.284,-3.976 -1.366,-0.068 -2.56,1.602 -2.665,3.731 -0.106,2.128 0.917,3.908 2.284,3.975 C -1.299,3.798 -0.105,2.128 0,0"
             style="fill:#32328c;fill-opacity:1;fill-rule:nonzero;stroke:none"
             id="path152" />
        </g>
        <g
           id="g154"
           transform="translate(366.5543,416.5524)">
          <path
             d="M 0,0 C 0.354,1.293 0.959,2.531 1.745,3.693 2.148,4.264 2.6,4.816 3.101,5.337 3.615,5.84 4.177,6.311 4.785,6.737 5.398,7.16 6.023,7.61 6.709,7.984 7.396,8.35 8.169,8.533 8.953,8.498 10.502,8.414 12.136,7.8 13.085,6.248 L 12.966,5.817 C 11.456,4.943 10.495,4.469 9.518,4.063 9.037,3.867 8.561,3.774 8.03,3.76 7.5,3.753 6.941,3.718 6.422,3.558 5.897,3.4 5.375,3.194 4.862,2.942 4.337,2.708 3.818,2.427 3.315,2.103 2.288,1.473 1.327,0.672 0.385,-0.228 Z"
             style="fill:#fe642e;fill-opacity:1;fill-rule:nonzero;stroke:none"
             id="path156" />
        </g>
        <g
           id="g158"
           transform="translate(409.5709,416.3249)">
          <path
             d="m 0,0 c -0.942,0.899 -1.903,1.7 -2.931,2.33 -0.503,0.324 -1.021,0.606 -1.547,0.84 -0.511,0.252 -1.035,0.458 -1.559,0.615 -0.52,0.16 -1.078,0.195 -1.609,0.202 -0.53,0.015 -1.005,0.107 -1.486,0.304 -0.978,0.406 -1.939,0.88 -3.449,1.753 L -12.7,6.476 c 0.949,1.551 2.583,2.166 4.132,2.249 0.784,0.036 1.557,-0.147 2.244,-0.514 C -5.639,7.838 -5.014,7.388 -4.4,6.965 -3.792,6.539 -3.23,6.067 -2.716,5.564 -2.215,5.043 -1.764,4.492 -1.36,3.92 -0.573,2.758 0.03,1.521 0.385,0.228 Z"
             style="fill:#fe642e;fill-opacity:1;fill-rule:nonzero;stroke:none"
             id="path160" />
        </g>
        <g
           id="g162">
          <g
             id="g164" />
          <g
             id="g176">
            <g
               clip-path="url(#clipPath168)"
               opacity="0.399994"
               id="g174">
              <g
                 transform="translate(375.7535,390.3337)"
                 id="g172">
                <path
                   d="m 0,0 c 0,-1.7 -2.302,-3.079 -5.142,-3.079 -2.839,0 -5.142,1.379 -5.142,3.079 0,1.7 2.303,3.079 5.142,3.079 C -2.302,3.079 0,1.7 0,0"
                   style="fill:#f8ab74;fill-opacity:1;fill-rule:nonzero;stroke:none"
                   id="path170" />
              </g>
            </g>
          </g>
        </g>
        <g
           id="g178">
          <g
             id="g180" />
          <g
             id="g192">
            <g
               clip-path="url(#clipPath184)"
               opacity="0.399994"
               id="g190">
              <g
                 transform="translate(411.4127,390.3337)"
                 id="g188">
                <path
                   d="m 0,0 c 0,-1.7 -2.302,-3.079 -5.142,-3.079 -2.839,0 -5.142,1.379 -5.142,3.079 0,1.7 2.303,3.079 5.142,3.079 C -2.302,3.079 0,1.7 0,0"
                   style="fill:#f8ab74;fill-opacity:1;fill-rule:nonzero;stroke:none"
                   id="path186" />
              </g>
            </g>
          </g>
        </g>
        <g
           id="g194"
           transform="translate(365.984,475.9997)">
          <path
             d="m 0,0 c -0.721,-3.507 -0.179,-7.181 1.345,-10.345 1.485,-3.177 3.934,-5.918 7.001,-7.556 3.087,-1.612 6.643,-2.116 10.158,-2.179 3.536,-0.052 7.089,0.188 10.633,0.511 7.09,0.56 14.238,1.522 21.445,0.964 3.573,-0.323 7.244,-1.178 10.246,-3.295 1.466,-1.078 2.737,-2.423 3.645,-3.991 0.908,-1.561 1.423,-3.36 1.352,-5.151 -0.051,1.791 -0.661,3.515 -1.605,4.997 -0.954,1.484 -2.249,2.727 -3.703,3.694 -2.94,1.939 -6.499,2.676 -10,2.889 -7.077,0.373 -14.17,-0.567 -21.285,-1.22 -3.566,-0.29 -7.15,-0.5 -10.753,-0.413 -3.581,0.114 -7.321,0.606 -10.545,2.444 -3.197,1.831 -5.658,4.76 -7.086,8.083 C -0.553,-7.24 -0.97,-3.457 0,0"
             style="fill:#f8ab74;fill-opacity:1;fill-rule:nonzero;stroke:none"
             id="path196" />
        </g>
        <g
           id="g198"
           transform="translate(427.7457,438.8303)">
          <path
             d="m 0,0 c -0.606,4.106 -3.735,7.436 -7.414,8.973 -3.724,1.599 -7.93,1.644 -11.892,0.958 -3.993,-0.7 -7.867,-2.015 -11.82,-3.154 -3.951,-1.132 -7.963,-2.121 -12.061,-2.695 -4.093,-0.562 -8.279,-0.676 -12.399,-0.108 -4.079,0.588 -8.25,1.745 -11.614,4.33 -3.332,2.551 -5.766,6.232 -6.74,10.285 -0.928,4.055 -0.464,8.403 1.37,12.079 -1.6,-3.773 -1.915,-8.048 -0.839,-11.944 1.049,-3.898 3.485,-7.381 6.721,-9.73 3.258,-2.341 7.247,-3.488 11.239,-4.012 4.011,-0.521 8.094,-0.375 12.11,0.205 4.028,0.531 8.003,1.475 11.937,2.567 3.929,1.079 7.844,2.436 11.963,3.022 4.079,0.6 8.43,0.459 12.248,-1.306 C -5.301,8.582 -3.617,7.267 -2.33,5.641 -1.04,4.023 -0.166,2.051 0,0"
             style="fill:#f8ab74;fill-opacity:1;fill-rule:nonzero;stroke:none"
             id="path200" />
        </g>
        <g
           id="g202"
           transform="translate(423.5602,440.7565)">
          <path
             d="m 0,0 c -1.312,2.16 -3.606,3.426 -5.937,3.827 -2.364,0.381 -4.81,-0.056 -7.026,-0.985 -2.232,-0.907 -4.224,-2.369 -6.09,-3.973 -1.861,-1.618 -3.624,-3.396 -5.483,-5.077 1.54,1.974 3.082,3.948 4.891,5.718 1.79,1.773 3.857,3.366 6.255,4.364 1.198,0.48 2.453,0.835 3.743,0.998 1.29,0.138 2.612,0.11 3.882,-0.194 C -4.496,4.38 -3.288,3.816 -2.273,3.019 -1.279,2.204 -0.439,1.182 0,0"
             style="fill:#f8ab74;fill-opacity:1;fill-rule:nonzero;stroke:none"
             id="path204" />
        </g>
        <g
           id="g206"
           transform="translate(437.5983,440.9689)">
          <path
             d="m 0,0 c 1.419,0.499 3.035,0.37 4.472,-0.167 1.444,-0.553 2.698,-1.568 3.66,-2.779 1.928,-2.465 2.71,-5.605 2.807,-8.646 0.064,-3.065 -0.578,-6.111 -1.74,-8.899 -0.583,-1.395 -1.259,-2.742 -2.015,-4.037 -0.787,-1.279 -1.611,-2.527 -2.531,-3.704 0.708,1.315 1.434,2.612 2.047,3.962 0.651,1.329 1.224,2.69 1.695,4.081 0.94,2.774 1.511,5.672 1.427,8.568 -0.065,2.876 -0.77,5.795 -2.378,8.165 C 6.636,-2.281 5.559,-1.284 4.255,-0.667 2.975,-0.003 1.474,0.25 0,0"
             style="fill:#f8ab74;fill-opacity:1;fill-rule:nonzero;stroke:none"
             id="path208" />
        </g>
        <g
           id="g210"
           transform="translate(429.7574,436.216)">
          <path
             d="m 0,0 c 1.043,0.228 2.171,-0.028 3.146,-0.524 0.976,-0.514 1.8,-1.313 2.42,-2.218 1.248,-1.833 1.872,-3.925 2.31,-6.026 0.398,-2.116 0.476,-4.292 0.195,-6.418 -0.134,-1.063 -0.352,-2.113 -0.663,-3.133 -0.166,-0.507 -0.338,-1.01 -0.539,-1.501 -0.097,-0.239 -0.182,-0.51 -0.359,-0.732 -0.156,-0.21 -0.463,-0.426 -0.717,-0.273 0.275,-0.085 0.472,0.154 0.575,0.365 0.121,0.216 0.159,0.467 0.218,0.727 0.119,0.509 0.207,1.025 0.289,1.539 0.177,1.024 0.272,2.057 0.327,3.086 0.096,2.058 -0.026,4.12 -0.424,6.131 -0.39,2 -0.956,4.024 -1.942,5.766 C 4.328,-2.349 3.688,-1.566 2.861,-0.989 2.053,-0.386 1.058,-0.027 0,0"
             style="fill:#f8ab74;fill-opacity:1;fill-rule:nonzero;stroke:none"
             id="path212" />
        </g>
        <g
           id="g214"
           transform="translate(212.1256,269.4167)">
          <path
             d="m 0,0 -125.375,-16.176 -17.584,136.278 125.376,16.176 z"
             style="fill:#eeeeff;fill-opacity:1;fill-rule:nonzero;stroke:none"
             id="path216" />
        </g>
        <g
           id="g218"
           transform="translate(194.5421,405.695)">
          <path
             d="m 0,0 -125.375,-16.177 -3.833,29.698 125.376,16.176 z"
             style="fill:#7371fc;fill-opacity:1;fill-rule:nonzero;stroke:none"
             id="path220" />
        </g>
        <g
           id="g222"
           transform="translate(86.7501,253.2404)">
          <path
             d="m 0,0 -17.071,-2.203 -17.584,136.278 17.072,2.203 z"
             style="fill:#91c4fb;fill-opacity:1;fill-rule:nonzero;stroke:none"
             id="path224" />
        </g>
        <g
           id="g226"
           transform="translate(69.1666,389.5182)">
          <path
             d="m 0,0 -17.071,-2.203 -3.832,29.698 17.071,2.202 z"
             style="fill:#443dc3;fill-opacity:1;fill-rule:nonzero;stroke:none"
             id="path228" />
        </g>
        <g
           id="g230"
           transform="translate(101.3737,357.4699)">
          <path
             d="m 0,0 -19.16,-2.472 -3.357,26.015 19.161,2.472 z"
             style="fill:#fefffd;fill-opacity:1;fill-rule:nonzero;stroke:none"
             id="path232" />
        </g>
        <g
           id="g234"
           transform="translate(124.1144,360.404)">
          <path
             d="m 0,0 -19.161,-2.472 -3.356,26.015 19.16,2.472 z"
             style="fill:#fefffd;fill-opacity:1;fill-rule:nonzero;stroke:none"
             id="path236" />
        </g>
        <g
           id="g238"
           transform="translate(146.8546,363.3381)">
          <path
             d="m 0,0 -19.16,-2.472 -3.357,26.015 19.161,2.472 z"
             style="fill:#fefffd;fill-opacity:1;fill-rule:nonzero;stroke:none"
             id="path240" />
        </g>
        <g
           id="g242"
           transform="translate(169.5949,366.2722)">
          <path
             d="m 0,0 -19.16,-2.472 -3.357,26.015 19.161,2.472 z"
             style="fill:#fefffd;fill-opacity:1;fill-rule:nonzero;stroke:none"
             id="path244" />
        </g>
        <g
           id="g246"
           transform="translate(192.3351,369.2062)">
          <path
             d="m 0,0 -19.16,-2.472 -3.357,26.015 19.161,2.472 z"
             style="fill:#fefffd;fill-opacity:1;fill-rule:nonzero;stroke:none"
             id="path248" />
        </g>
        <g
           id="g250"
           transform="translate(105.1686,328.0568)">
          <path
             d="m 0,0 -19.16,-2.472 -3.357,26.015 19.161,2.472 z"
             style="fill:#fefffd;fill-opacity:1;fill-rule:nonzero;stroke:none"
             id="path252" />
        </g>
        <g
           id="g254"
           transform="translate(127.9093,330.9909)">
          <path
             d="m 0,0 -19.161,-2.472 -3.356,26.015 19.161,2.472 z"
             style="fill:#fefffd;fill-opacity:1;fill-rule:nonzero;stroke:none"
             id="path256" />
        </g>
        <g
           id="g258"
           transform="translate(150.6496,333.925)">
          <path
             d="m 0,0 -19.16,-2.472 -3.357,26.015 19.161,2.472 z"
             style="fill:#fefffd;fill-opacity:1;fill-rule:nonzero;stroke:none"
             id="path260" />
        </g>
        <g
           id="g262"
           transform="translate(173.3898,336.8591)">
          <path
             d="m 0,0 -19.16,-2.472 -3.357,26.015 19.161,2.472 z"
             style="fill:#fefffd;fill-opacity:1;fill-rule:nonzero;stroke:none"
             id="path264" />
        </g>
        <g
           id="g266"
           transform="translate(196.1305,339.7932)">
          <path
             d="m 0,0 -19.161,-2.472 -3.356,26.015 19.16,2.472 z"
             style="fill:#fefffd;fill-opacity:1;fill-rule:nonzero;stroke:none"
             id="path268" />
        </g>
        <g
           id="g270"
           transform="translate(108.964,298.6437)">
          <path
             d="m 0,0 -19.161,-2.472 -3.356,26.015 19.16,2.472 z"
             style="fill:#fefffd;fill-opacity:1;fill-rule:nonzero;stroke:none"
             id="path272" />
        </g>
        <g
           id="g274"
           transform="translate(131.7042,301.5778)">
          <path
             d="m 0,0 -19.16,-2.472 -3.357,26.015 19.161,2.472 z"
             style="fill:#fefffd;fill-opacity:1;fill-rule:nonzero;stroke:none"
             id="path276" />
        </g>
        <g
           id="g278"
           transform="translate(154.4445,304.5119)">
          <path
             d="m 0,0 -19.16,-2.472 -3.357,26.015 19.161,2.472 z"
             style="fill:#fefffd;fill-opacity:1;fill-rule:nonzero;stroke:none"
             id="path280" />
        </g>
        <g
           id="g282"
           transform="translate(177.1847,307.446)">
          <path
             d="m 0,0 -19.16,-2.472 -3.357,26.015 19.161,2.472 z"
             style="fill:#fefffd;fill-opacity:1;fill-rule:nonzero;stroke:none"
             id="path284" />
        </g>
        <g
           id="g286"
           transform="translate(199.9254,310.3801)">
          <path
             d="m 0,0 -19.161,-2.472 -3.356,26.015 19.16,2.472 z"
             style="fill:#fefffd;fill-opacity:1;fill-rule:nonzero;stroke:none"
             id="path288" />
        </g>
        <g
           id="g290"
           transform="translate(112.7589,269.2307)">
          <path
             d="m 0,0 -19.16,-2.472 -3.357,26.015 19.16,2.472 z"
             style="fill:#fefffd;fill-opacity:1;fill-rule:nonzero;stroke:none"
             id="path292" />
        </g>
        <g
           id="g294"
           transform="translate(135.4992,272.1647)">
          <path
             d="m 0,0 -19.16,-2.472 -3.357,26.015 19.161,2.472 z"
             style="fill:#fefffd;fill-opacity:1;fill-rule:nonzero;stroke:none"
             id="path296" />
        </g>
        <g
           id="g298"
           transform="translate(158.2394,275.0988)">
          <path
             d="m 0,0 -19.16,-2.472 -3.357,26.015 19.161,2.472 z"
             style="fill:#fefffd;fill-opacity:1;fill-rule:nonzero;stroke:none"
             id="path300" />
        </g>
        <g
           id="g302"
           transform="translate(180.9801,278.0329)">
          <path
             d="m 0,0 -19.161,-2.472 -3.356,26.015 19.16,2.473 z"
             style="fill:#fefffd;fill-opacity:1;fill-rule:nonzero;stroke:none"
             id="path304" />
        </g>
        <g
           id="g306"
           transform="translate(203.7204,280.967)">
          <path
             d="m 0,0 -19.16,-2.472 -3.357,26.015 19.161,2.472 z"
             style="fill:#fefffd;fill-opacity:1;fill-rule:nonzero;stroke:none"
             id="path308" />
        </g>
        <g
           id="g310"
           transform="translate(58.341,418.3132)">
          <path
             d="m 0,0 -1.088,8.437 c -0.683,5.291 3.053,10.134 8.344,10.816 l 5.866,0.757 c 5.29,0.683 10.133,-3.053 10.815,-8.344 l 1.877,-14.541 c 0.683,-5.291 -3.053,-10.134 -8.344,-10.816"
             style="fill:none;stroke:#32338c;stroke-width:4.028;stroke-linecap:round;stroke-linejoin:round;stroke-miterlimit:10;stroke-dasharray:none;stroke-opacity:1"
             id="path312" />
        </g>
        <g
           id="g314"
           transform="translate(75.07,420.4719)">
          <path
             d="m 0,0 -1.088,8.437 c -0.683,5.291 3.052,10.134 8.343,10.816 l 5.866,0.757 c 5.291,0.683 10.134,-3.053 10.816,-8.344 l 1.877,-14.541 c 0.682,-5.292 -3.053,-10.134 -8.344,-10.816"
             style="fill:none;stroke:#32338c;stroke-width:4.028;stroke-linecap:round;stroke-linejoin:round;stroke-miterlimit:10;stroke-dasharray:none;stroke-opacity:1"
             id="path316" />
        </g>
        <g
           id="g318"
           transform="translate(91.7985,422.6301)">
          <path
             d="m 0,0 -1.088,8.437 c -0.683,5.291 3.053,10.134 8.344,10.816 l 5.865,0.757 c 5.292,0.683 10.134,-3.053 10.816,-8.344 l 1.876,-14.541 c 0.684,-5.291 -3.052,-10.134 -8.343,-10.816"
             style="fill:none;stroke:#32338c;stroke-width:4.028;stroke-linecap:round;stroke-linejoin:round;stroke-miterlimit:10;stroke-dasharray:none;stroke-opacity:1"
             id="path320" />
        </g>
        <g
           id="g322"
           transform="translate(108.5275,424.7888)">
          <path
             d="m 0,0 -1.089,8.437 c -0.682,5.291 3.053,10.133 8.344,10.816 l 5.866,0.757 c 5.291,0.683 10.133,-3.053 10.816,-8.344 L 25.813,-2.875 C 26.496,-8.167 22.76,-13.009 17.47,-13.692"
             style="fill:none;stroke:#32338c;stroke-width:4.028;stroke-linecap:round;stroke-linejoin:round;stroke-miterlimit:10;stroke-dasharray:none;stroke-opacity:1"
             id="path324" />
        </g>
        <g
           id="g326"
           transform="translate(125.256,426.9474)">
          <path
             d="m 0,0 -1.088,8.437 c -0.683,5.291 3.053,10.133 8.343,10.816 l 5.867,0.757 c 5.29,0.682 10.133,-3.053 10.815,-8.344 l 1.877,-14.541 c 0.683,-5.292 -3.053,-10.134 -8.344,-10.817"
             style="fill:none;stroke:#32338c;stroke-width:4.028;stroke-linecap:round;stroke-linejoin:round;stroke-miterlimit:10;stroke-dasharray:none;stroke-opacity:1"
             id="path328" />
        </g>
        <g
           id="g330"
           transform="translate(141.985,429.1057)">
          <path
             d="m 0,0 -1.089,8.437 c -0.682,5.291 3.053,10.133 8.344,10.816 l 5.866,0.757 c 5.291,0.683 10.133,-3.053 10.816,-8.344 l 1.876,-14.541 c 0.683,-5.292 -3.053,-10.134 -8.344,-10.816"
             style="fill:none;stroke:#32338c;stroke-width:4.028;stroke-linecap:round;stroke-linejoin:round;stroke-miterlimit:10;stroke-dasharray:none;stroke-opacity:1"
             id="path332" />
        </g>
        <g
           id="g334"
           transform="translate(158.7135,431.2639)">
          <path
             d="m 0,0 -1.088,8.437 c -0.683,5.291 3.052,10.134 8.343,10.816 l 5.866,0.757 c 5.291,0.683 10.134,-3.053 10.816,-8.344 L 25.813,-2.875 C 26.496,-8.166 22.76,-13.009 17.47,-13.691"
             style="fill:none;stroke:#32338c;stroke-width:4.028;stroke-linecap:round;stroke-linejoin:round;stroke-miterlimit:10;stroke-dasharray:none;stroke-opacity:1"
             id="path336" />
        </g>
        <g
           id="g338"
           transform="translate(401.5084,244.1296)">
          <path
             d="m 0,0 c 0,-84.632 -68.607,-153.24 -153.24,-153.24 -84.632,0 -153.24,68.608 -153.24,153.24 0,84.632 68.608,153.24 153.24,153.24 C -68.607,153.24 0,84.632 0,0"
             style="fill:#32338c;fill-opacity:1;fill-rule:nonzero;stroke:none"
             id="path340" />
        </g>
        <g
           id="g342"
           transform="translate(408.7174,244.1296)">
          <path
             d="m 0,0 c 0,-84.632 -68.607,-153.24 -153.239,-153.24 -84.633,0 -153.24,68.608 -153.24,153.24 0,84.632 68.607,153.24 153.24,153.24 C -68.607,153.24 0,84.632 0,0"
             style="fill:#7371fc;fill-opacity:1;fill-rule:nonzero;stroke:none"
             id="path344" />
        </g>
        <g
           id="g346"
           transform="translate(279.3727,168.4684)">
          <path
             d="m 0,0 c 27.654,11.156 52.752,29.714 69.033,54.696 18.91,29.014 24.619,64.202 22.963,99.203 -25.132,37.153 -67.659,61.577 -115.891,61.577 -77.217,0 -139.814,-62.598 -139.814,-139.815 0,-25.595 6.883,-49.58 18.891,-70.216 C -99.945,-15.77 -46.16,-18.621 0,0"
             style="fill:#ffffff;fill-opacity:1;fill-rule:nonzero;stroke:none"
             id="path348" />
        </g>
        <g
           id="g350"
           transform="translate(371.3688,322.3674)">
          <path
             d="m 0,0 c 1.656,-35 -4.053,-70.188 -22.963,-99.203 -16.281,-24.982 -41.379,-43.54 -69.033,-54.696 -46.16,-18.621 -99.945,-15.769 -144.818,5.445 24.218,-41.618 69.301,-69.598 120.923,-69.598 77.217,0 139.815,62.596 139.815,139.814 C 23.924,-49.252 15.103,-22.328 0,0"
             style="fill:#eeeeff;fill-opacity:1;fill-rule:nonzero;stroke:none"
             id="path352" />
        </g>
        <g
           id="g354"
           transform="translate(253.9518,242.322)">
          <path
             d="M 0,0 -65.778,58.639 3.052,3.614 Z"
             style="fill:#32338c;fill-opacity:1;fill-rule:nonzero;stroke:none"
             id="path356" />
        </g>
        <g
           id="g358"
           transform="translate(258.0973,245.7868)">
          <path
             d="M 0,0 30.357,-111.438 -5.239,-3.314 Z"
             style="fill:#32338c;fill-opacity:1;fill-rule:nonzero;stroke:none"
             id="path360" />
        </g>
        <g
           id="g362"
           transform="translate(265.8375,244.1296)">
          <path
             d="m 0,0 c 0,-5.722 -4.639,-10.359 -10.359,-10.359 -5.722,0 -10.36,4.637 -10.36,10.359 0,5.721 4.638,10.359 10.36,10.359 C -4.639,10.359 0,5.721 0,0"
             style="fill:#fe814b;fill-opacity:1;fill-rule:nonzero;stroke:none"
             id="path364" />
        </g>
        <g
           id="g366"
           transform="translate(255.4782,383.944)">
          <path
             d="M 0,0 V -29.721"
             style="fill:none;stroke:#32338c;stroke-width:3.883;stroke-linecap:round;stroke-linejoin:round;stroke-miterlimit:10;stroke-dasharray:none;stroke-opacity:1"
             id="path368" />
        </g>
        <g
           id="g370"
           transform="translate(255.4782,134.0358)">
          <path
             d="M 0,0 V -29.721"
             style="fill:none;stroke:#32338c;stroke-width:3.883;stroke-linecap:round;stroke-linejoin:round;stroke-miterlimit:10;stroke-dasharray:none;stroke-opacity:1"
             id="path372" />
        </g>
        <g
           id="g374"
           transform="translate(395.2926,244.1296)">
          <path
             d="M 0,0 H -29.722"
             style="fill:none;stroke:#32338c;stroke-width:3.883;stroke-linecap:round;stroke-linejoin:round;stroke-miterlimit:10;stroke-dasharray:none;stroke-opacity:1"
             id="path376" />
        </g>
        <g
           id="g378"
           transform="translate(145.3849,244.1296)">
          <path
             d="M 0,0 H -29.722"
             style="fill:none;stroke:#32338c;stroke-width:3.883;stroke-linecap:round;stroke-linejoin:round;stroke-miterlimit:10;stroke-dasharray:none;stroke-opacity:1"
             id="path380" />
        </g>
        <g
           id="g382"
           transform="translate(137.4635,319.1008)">
          <path
             d="M 0,0 25.087,-15.937"
             style="fill:none;stroke:#32338c;stroke-width:3.883;stroke-linecap:round;stroke-linejoin:round;stroke-miterlimit:10;stroke-dasharray:none;stroke-opacity:1"
             id="path384" />
        </g>
        <g
           id="g386"
           transform="translate(348.4049,185.0954)">
          <path
             d="M 0,0 25.088,-15.938"
             style="fill:none;stroke:#32338c;stroke-width:3.883;stroke-linecap:round;stroke-linejoin:round;stroke-miterlimit:10;stroke-dasharray:none;stroke-opacity:1"
             id="path388" />
        </g>
        <g
           id="g390"
           transform="translate(330.4489,362.1442)">
          <path
             d="M 0,0 -15.937,-25.087"
             style="fill:none;stroke:#32338c;stroke-width:3.883;stroke-linecap:round;stroke-linejoin:round;stroke-miterlimit:10;stroke-dasharray:none;stroke-opacity:1"
             id="path392" />
        </g>
        <g
           id="g394"
           transform="translate(196.444,151.2018)">
          <path
             d="M 0,0 -15.938,-25.087"
             style="fill:none;stroke:#32338c;stroke-width:3.883;stroke-linecap:round;stroke-linejoin:round;stroke-miterlimit:10;stroke-dasharray:none;stroke-opacity:1"
             id="path396" />
        </g>
        <g
           id="g398"
           transform="translate(373.4928,319.1008)">
          <path
             d="M 0,0 -25.088,-15.937"
             style="fill:none;stroke:#32338c;stroke-width:3.883;stroke-linecap:round;stroke-linejoin:round;stroke-miterlimit:10;stroke-dasharray:none;stroke-opacity:1"
             id="path400" />
        </g>
        <g
           id="g402"
           transform="translate(162.5504,185.0954)">
          <path
             d="M 0,0 -25.087,-15.938"
             style="fill:none;stroke:#32338c;stroke-width:3.883;stroke-linecap:round;stroke-linejoin:round;stroke-miterlimit:10;stroke-dasharray:none;stroke-opacity:1"
             id="path404" />
        </g>
        <g
           id="g406"
           transform="translate(180.5065,362.1442)">
          <path
             d="M 0,0 15.938,-25.087"
             style="fill:none;stroke:#32338c;stroke-width:3.883;stroke-linecap:round;stroke-linejoin:round;stroke-miterlimit:10;stroke-dasharray:none;stroke-opacity:1"
             id="path408" />
        </g>
        <g
           id="g410"
           transform="translate(314.5123,151.2018)">
          <path
             d="M 0,0 15.937,-25.087"
             style="fill:none;stroke:#32338c;stroke-width:3.883;stroke-linecap:round;stroke-linejoin:round;stroke-miterlimit:10;stroke-dasharray:none;stroke-opacity:1"
             id="path412" />
        </g>
        <g
           id="g414"
           transform="translate(206.3146,92.8239)">
          <path
             d="m 0,0 -134.938,-51.136 -28.105,74.164 134.938,51.136 z"
             style="fill:#f8ab74;fill-opacity:1;fill-rule:nonzero;stroke:none"
             id="path416" />
        </g>
        <g
           id="g418"
           transform="translate(124.7931,104.3376)">
          <path
             d="M 0,0 -81.521,11.515 3.32,-8.762 53.417,62.65 Z"
             style="fill:#fe814b;fill-opacity:1;fill-rule:nonzero;stroke:none"
             id="path420" />
        </g>
        <g
           id="g422"
           transform="translate(413.0319,21.2302)">
          <path
             d="M 0,0 -125.795,29.694 -87.491,191.962 38.304,162.268 Z"
             style="fill:#32338c;fill-opacity:1;fill-rule:nonzero;stroke:none"
             id="path424" />
        </g>
        <g
           id="g426"
           transform="translate(415.3668,20.6794)">
          <path
             d="M 0,0 -125.796,29.694 -87.492,191.962 38.304,162.268 Z"
             style="fill:#91c4fb;fill-opacity:1;fill-rule:nonzero;stroke:none"
             id="path428" />
        </g>
        <g
           id="g430"
           transform="translate(407.3004,32.571)">
          <path
             d="m 0,0 -105.196,24.832 32.368,137.12 105.195,-24.831 z"
             style="fill:#ffffff;fill-opacity:1;fill-rule:nonzero;stroke:none"
             id="path432" />
        </g>
        <g
           id="g434"
           transform="translate(413.6715,210.5778)">
          <path
             d="m 0,0 -37.663,8.891 c -6.048,1.427 -12.108,-2.319 -13.536,-8.367 l -1.482,-6.278 59.565,-14.06 1.481,6.279 C 9.793,-7.487 6.048,-1.428 0,0"
             style="fill:#32338c;fill-opacity:1;fill-rule:nonzero;stroke:none"
             id="path436" />
        </g>
        <g
           id="g438"
           transform="translate(359.4684,167.3063)">
          <path
             d="m 0,0 c -1.318,-5.585 -6.915,-9.044 -12.501,-7.726 -5.585,1.319 -9.044,6.915 -7.726,12.5 1.319,5.586 6.915,9.045 12.5,7.726 C -2.141,11.182 1.318,5.585 0,0"
             style="fill:#eeeefe;fill-opacity:1;fill-rule:nonzero;stroke:none"
             id="path440" />
        </g>
        <g
           id="g442"
           transform="translate(344.5035,174.0964)">
          <path
             d="m 0,0 4.342,-7.025 12.49,7.718"
             style="fill:none;stroke:#fe814b;stroke-width:3.198;stroke-linecap:round;stroke-linejoin:round;stroke-miterlimit:10;stroke-dasharray:none;stroke-opacity:1"
             id="path444" />
        </g>
        <g
           id="g446"
           transform="translate(369.6041,171.5886)">
          <path
             d="M 0,0 57.254,-13.515"
             style="fill:none;stroke:#91c4fb;stroke-width:3.198;stroke-linecap:round;stroke-linejoin:round;stroke-miterlimit:10;stroke-dasharray:none;stroke-opacity:1"
             id="path448" />
        </g>
        <g
           id="g450"
           transform="translate(368.111,165.2663)">
          <path
             d="M 0,0 57.255,-13.516"
             style="fill:none;stroke:#91c4fb;stroke-width:3.198;stroke-linecap:round;stroke-linejoin:round;stroke-miterlimit:10;stroke-dasharray:none;stroke-opacity:1"
             id="path452" />
        </g>
        <g
           id="g454"
           transform="translate(366.6188,158.9431)">
          <path
             d="M 0,0 57.254,-13.515"
             style="fill:none;stroke:#91c4fb;stroke-width:3.198;stroke-linecap:round;stroke-linejoin:round;stroke-miterlimit:10;stroke-dasharray:none;stroke-opacity:1"
             id="path456" />
        </g>
        <g
           id="g458"
           transform="translate(351.8678,135.1071)">
          <path
             d="m 0,0 c -1.318,-5.585 -6.915,-9.044 -12.501,-7.726 -5.585,1.319 -9.044,6.915 -7.726,12.5 1.319,5.586 6.915,9.045 12.5,7.727 C -2.141,11.183 1.318,5.586 0,0"
             style="fill:#eeeefe;fill-opacity:1;fill-rule:nonzero;stroke:none"
             id="path460" />
        </g>
        <g
           id="g462"
           transform="translate(336.903,141.8972)">
          <path
             d="m 0,0 4.342,-7.025 12.49,7.719"
             style="fill:none;stroke:#fe814b;stroke-width:3.198;stroke-linecap:round;stroke-linejoin:round;stroke-miterlimit:10;stroke-dasharray:none;stroke-opacity:1"
             id="path464" />
        </g>
        <g
           id="g466"
           transform="translate(362.0026,139.3903)">
          <path
             d="M 0,0 57.255,-13.516"
             style="fill:none;stroke:#91c4fb;stroke-width:3.198;stroke-linecap:round;stroke-linejoin:round;stroke-miterlimit:10;stroke-dasharray:none;stroke-opacity:1"
             id="path468" />
        </g>
        <g
           id="g470"
           transform="translate(360.5104,133.0671)">
          <path
             d="M 0,0 57.255,-13.515"
             style="fill:none;stroke:#91c4fb;stroke-width:3.198;stroke-linecap:round;stroke-linejoin:round;stroke-miterlimit:10;stroke-dasharray:none;stroke-opacity:1"
             id="path472" />
        </g>
        <g
           id="g474"
           transform="translate(359.0182,126.7448)">
          <path
             d="M 0,0 57.254,-13.516"
             style="fill:none;stroke:#91c4fb;stroke-width:3.198;stroke-linecap:round;stroke-linejoin:round;stroke-miterlimit:10;stroke-dasharray:none;stroke-opacity:1"
             id="path476" />
        </g>
        <g
           id="g478"
           transform="translate(344.2672,102.9089)">
          <path
             d="m 0,0 c -1.318,-5.586 -6.915,-9.045 -12.501,-7.727 -5.585,1.319 -9.044,6.915 -7.726,12.501 1.319,5.585 6.915,9.044 12.5,7.726 C -2.141,11.182 1.318,5.585 0,0"
             style="fill:#eeeefe;fill-opacity:1;fill-rule:nonzero;stroke:none"
             id="path480" />
        </g>
        <g
           id="g482"
           transform="translate(329.3024,109.6979)">
          <path
             d="m 0,0 4.342,-7.025 12.49,7.719"
             style="fill:none;stroke:#fe814b;stroke-width:3.198;stroke-linecap:round;stroke-linejoin:round;stroke-miterlimit:10;stroke-dasharray:none;stroke-opacity:1"
             id="path484" />
        </g>
        <g
           id="g486"
           transform="translate(354.402,107.1911)">
          <path
             d="M 0,0 57.255,-13.515"
             style="fill:none;stroke:#91c4fb;stroke-width:3.198;stroke-linecap:round;stroke-linejoin:round;stroke-miterlimit:10;stroke-dasharray:none;stroke-opacity:1"
             id="path488" />
        </g>
        <g
           id="g490"
           transform="translate(352.9098,100.8688)">
          <path
             d="M 0,0 57.254,-13.516"
             style="fill:none;stroke:#91c4fb;stroke-width:3.198;stroke-linecap:round;stroke-linejoin:round;stroke-miterlimit:10;stroke-dasharray:none;stroke-opacity:1"
             id="path492" />
        </g>
        <g
           id="g494"
           transform="translate(351.4176,94.5456)">
          <path
             d="M 0,0 57.254,-13.515"
             style="fill:none;stroke:#91c4fb;stroke-width:3.198;stroke-linecap:round;stroke-linejoin:round;stroke-miterlimit:10;stroke-dasharray:none;stroke-opacity:1"
             id="path496" />
        </g>
        <g
           id="g498">
          <g
             id="g500" />
          <g
             id="g512">
            <g
               clip-path="url(#clipPath504)"
               id="g510">
              <g
                 transform="translate(427.3248,179.1765)"
                 id="g508">
                <path
                   d="m 0,0 -77.571,18.311 c -2.447,0.578 -3.961,3.028 -3.384,5.474 l 1.188,5.033 L 6.662,8.416 5.475,3.384 C 4.896,0.937 2.446,-0.577 0,0"
                   style="fill:#91c4fb;fill-opacity:1;fill-rule:nonzero;stroke:none"
                   id="path506" />
              </g>
            </g>
          </g>
        </g>
        <g
           id="g514"
           transform="translate(336.901,70.654)">
          <path
             d="m 0,0 c -1.318,-5.585 -6.915,-9.044 -12.5,-7.726 -5.586,1.319 -9.045,6.915 -7.727,12.5 1.32,5.586 6.916,9.045 12.501,7.727 C -2.141,11.183 1.318,5.586 0,0"
             style="fill:#eeeefe;fill-opacity:1;fill-rule:nonzero;stroke:none"
             id="path516" />
        </g>
        <g
           id="g518"
           transform="translate(321.9362,77.444)">
          <path
             d="M 0,0 4.343,-7.025 16.832,0.694"
             style="fill:none;stroke:#fe814b;stroke-width:3.198;stroke-linecap:round;stroke-linejoin:round;stroke-miterlimit:10;stroke-dasharray:none;stroke-opacity:1"
             id="path520" />
        </g>
        <g
           id="g522"
           transform="translate(347.0367,74.9372)">
          <path
             d="M 0,0 57.254,-13.516"
             style="fill:none;stroke:#91c4fb;stroke-width:3.198;stroke-linecap:round;stroke-linejoin:round;stroke-miterlimit:10;stroke-dasharray:none;stroke-opacity:1"
             id="path524" />
        </g>
        <g
           id="g526"
           transform="translate(345.5446,68.614)">
          <path
             d="M 0,0 57.254,-13.515"
             style="fill:none;stroke:#91c4fb;stroke-width:3.198;stroke-linecap:round;stroke-linejoin:round;stroke-miterlimit:10;stroke-dasharray:none;stroke-opacity:1"
             id="path528" />
        </g>
        <g
           id="g530"
           transform="translate(344.0514,62.2917)">
          <path
             d="M 0,0 57.255,-13.516"
             style="fill:none;stroke:#91c4fb;stroke-width:3.198;stroke-linecap:round;stroke-linejoin:round;stroke-miterlimit:10;stroke-dasharray:none;stroke-opacity:1"
             id="path532" />
        </g>
        <g
           id="g534"
           transform="translate(416.6735,330.7438)">
          <path
             d="m 0,0 c -1.371,-3.303 -3.037,-6.439 -4.774,-9.534 -1.768,-3.078 -3.609,-6.114 -5.747,-8.981 1.369,3.304 3.035,6.44 4.775,9.533 C -3.977,-5.905 -2.136,-2.869 0,0"
             style="fill:#ffffff;fill-opacity:1;fill-rule:nonzero;stroke:none"
             id="path536" />
        </g>
        <g
           id="g538"
           transform="translate(431.4069,284.9089)">
          <path
             d="m 0,0 c 0,0 -10.092,-15.837 -20.08,-27.633 -9.989,-11.796 -24.074,-25.024 -24.074,-25.024 l -75.336,31.558 11.058,25.804 55.158,-17.043 31.778,44.978 z"
             style="fill:#32338c;fill-opacity:1;fill-rule:nonzero;stroke:none"
             id="path540" />
        </g>
        <g
           id="g542"
           transform="translate(311.0963,294.6061)">
          <path
             d="m 0,0 11.879,-4.992 -7.789,-18.175 -7.722,2.63 -17.044,-0.698 -5.004,2.502 c -1.839,0.92 -2.536,3.19 -1.53,4.983 l 1.365,2.434 -1.209,0.944 c -1.723,1.347 -1.859,3.906 -0.287,5.427 l 1.357,1.313 -1.839,2.49 c -1.311,1.776 -0.731,4.302 1.223,5.328 l 1.872,0.983 -0.606,3.307 c -0.344,1.877 0.835,3.696 2.689,4.149 v 0 c 2.403,0.586 4.941,0.093 6.95,-1.35 z"
             style="fill:#f8ab72;fill-opacity:1;fill-rule:nonzero;stroke:none"
             id="path544" />
        </g>
        <g
           id="g546"
           transform="translate(311.3073,293.3889)">
          <path
             d="m 0,0 c -3.615,7.738 -7.288,15.689 -7.944,24.206 -0.033,0.415 -0.087,0.889 -0.428,1.129 -0.198,0.14 -0.452,0.167 -0.694,0.17 -1.999,0.017 -3.829,-1.466 -4.543,-3.332 -0.716,-1.866 -0.437,-4.011 0.414,-5.82 0.187,-0.398 0.406,-0.807 0.387,-1.247 -0.016,-0.379 -0.21,-0.726 -0.397,-1.056 l -1.887,-3.318 C -11.155,5.942 -5.856,2.037 0,0"
             style="fill:#f8ab72;fill-opacity:1;fill-rule:nonzero;stroke:none"
             id="path548" />
        </g>
        <g
           id="g550"
           transform="translate(304.4078,298.5388)">
          <path
             d="M 0,0 C -0.717,0.446 -1.395,0.939 -2.066,1.44 -2.742,1.935 -3.39,2.464 -4.037,2.994 -4.677,3.533 -5.315,4.074 -5.926,4.647 -6.54,5.216 -7.148,5.792 -7.718,6.417 -7,5.971 -6.323,5.478 -5.651,4.978 -4.976,4.482 -4.327,3.953 -3.681,3.423 -3.042,2.883 -2.403,2.343 -1.793,1.769 -1.178,1.2 -0.569,0.624 0,0"
             style="fill:#32338c;fill-opacity:1;fill-rule:nonzero;stroke:none"
             id="path552" />
        </g>
        <g
           id="g554"
           transform="translate(300.4938,400.1813)">
          <path
             d="m 0,0 18.231,-7.038 c 2.366,-0.913 3.831,-3.294 3.581,-5.817 l -0.92,-9.277 -6.31,-10.343 c 0,0 -2.585,0.725 -1.654,3.62 0.93,2.896 4.033,10.653 4.033,10.653 v 5.481 c 0,0 -2.988,-12.649 -5.843,-14.996 -2.854,-2.347 -13.177,2.238 -15.97,4.513 -1.361,1.109 1.06,4.69 1.389,10.028 C -3.116,-7.567 -4.717,-0.212 0,0"
             style="fill:#f8ab74;fill-opacity:1;fill-rule:nonzero;stroke:none"
             id="path556" />
        </g>
        <g
           id="g558"
           transform="translate(312.1549,395.9421)">
          <path
             d="m 0,0 c 0.31,-2.096 0.362,-4.231 0.217,-6.353 -0.146,-2.124 -0.529,-4.228 -1.067,-6.289 -0.58,-2.048 -1.319,-4.056 -2.269,-5.96 -0.95,-1.903 -2.079,-3.716 -3.41,-5.365 1.14,1.782 2.163,3.63 3.021,5.549 0.859,1.918 1.589,3.893 2.12,5.923 0.575,2.019 0.945,4.092 1.178,6.181 C 0.023,-4.225 0.08,-2.115 0,0"
             style="fill:#32338c;fill-opacity:1;fill-rule:nonzero;stroke:none"
             id="path560" />
        </g>
        <g
           id="g562"
           transform="translate(305.2155,398.3474)">
          <path
             d="m 0,0 c 0.195,-2.063 0.185,-4.146 0.02,-6.217 -0.163,-2.073 -0.518,-4.128 -0.986,-6.155 -0.512,-2.015 -1.136,-4.006 -1.942,-5.922 -0.413,-0.954 -0.845,-1.898 -1.32,-2.821 -0.253,-0.455 -0.48,-0.917 -0.757,-1.363 -0.272,-0.438 -0.641,-0.875 -1.149,-1.026 0.484,0.21 0.784,0.656 1.021,1.1 0.233,0.454 0.426,0.939 0.638,1.407 0.422,0.941 0.806,1.897 1.167,2.861 0.716,1.929 1.336,3.893 1.8,5.896 0.507,1.993 0.85,4.024 1.102,6.066 C -0.154,-4.131 -0.035,-2.07 0,0"
             style="fill:#32338c;fill-opacity:1;fill-rule:nonzero;stroke:none"
             id="path564" />
        </g>
      </g>
    </g>
  </g>
</svg>
