<?xml version="1.0" standalone="no"?>
<svg version="1.1" id="Layer_1" xmlns="http://www.w3.org/2000/svg" xmlns:xlink="http://www.w3.org/1999/xlink" x="0px" y="0px" width="595.28px" height="595.28px" viewBox="0 0 595.28 595.28" enable-background="new 0 0 595.28 595.28" xml:space="preserve">
<path id="color_x5F_2" fill="#0f172a" d="M340.137,340.294c20.653,0,41.306,0,61.959,0c0,3.962,0,7.924,0,11.887
	c-20.653,0-41.306,0-61.959,0C340.137,348.219,340.137,344.257,340.137,340.294z M338.242,339.137
	c0.044-0.015,0.088-0.031,0.133-0.044l-0.131-0.001L338.242,339.137z M250.743,353.592l0.096-0.001c-0.032,0-0.063,0-0.096,0
	V353.592z M252.076,352.181c20.653,0,41.306,0,61.958,0c0-3.962,0-7.924,0-11.887c-20.653,0-41.306,0-61.958,0
	C252.076,344.257,252.076,348.219,252.076,352.181z M166.226,352.181c20.653,0,41.306,0,61.959,0c0-3.962,0-7.924,0-11.887
	c-20.653,0-41.306,0-61.959,0C166.226,344.257,166.226,348.219,166.226,352.181z M163.743,353.592l0.056-0.001
	c-0.02-0.002-0.037-0.006-0.056-0.009L163.743,353.592z M164.241,339.167c0.071-0.027,0.146-0.051,0.22-0.074l-0.218-0.002
	L164.241,339.167z M78.165,352.181c20.653,0,41.306,0,61.959,0c0-3.962,0-7.924,0-11.887c-20.653,0-41.306,0-61.959,0
	C78.165,344.257,78.165,348.219,78.165,352.181z M76.743,353.592l0.096-0.001c-0.032,0-0.063,0-0.096,0V353.592z M338.243,243.092
	l-0.021,0.617c0.094-0.033,0.19-0.063,0.289-0.089c0.263-0.102,0.522-0.169,0.722-0.169c15.222,0,30.444,0,45.666,0L338.243,243.092
	z M340.137,256.746c17.677,0,35.354,0,53.032,0l8.927-0.136c0-3.917,0-7.833,0-11.75c-20.653,0-41.306,0-61.959,0
	C340.137,248.822,340.137,252.784,340.137,256.746z M252.076,256.746c18.031,0,36.062,0,54.093,0l7.866-0.12
	c0-3.922,0-7.844,0-11.766c-20.653,0-41.306,0-61.958,0C252.076,248.822,252.076,252.784,252.076,256.746z M251.243,243.092
	l-0.012,0.359c15.556,0,31.112,0,46.667,0L251.243,243.092z M166.226,256.746c17.647,0,35.295,0,52.943,0l9.016-0.138
	c0-3.916,0-7.832,0-11.748c-20.653,0-41.306,0-61.959,0C166.226,248.822,166.226,252.784,166.226,256.746z M164.243,243.092
	l-0.022,0.649c0.122-0.047,0.249-0.087,0.378-0.121c0.264-0.102,0.522-0.169,0.722-0.169c15.192,0,30.385,0,45.578,0
	L164.243,243.092z M78.165,256.746c18.001,0,36.002,0,54.004,0l7.955-0.122c0-3.921,0-7.843,0-11.764c-20.653,0-41.306,0-61.959,0
	C78.165,248.822,78.165,252.784,78.165,256.746z M77.243,243.092l-0.013,0.361c0.01,0,0.021-0.002,0.03-0.002
	c15.546,0,31.092,0,46.638,0L77.243,243.092z M340.137,161.311c5.332,0,10.664,0,15.996,0l45.963-0.702c0-3.728,0-7.456,0-11.184
	c-20.653,0-41.306,0-61.959,0C340.137,153.388,340.137,157.349,340.137,161.311z M338.202,148.281
	c0.1-0.036,0.204-0.068,0.309-0.096c0.263-0.102,0.522-0.169,0.722-0.169c21.336,0,42.674,0,64.011,0v-0.424l-65-0.5
	L338.202,148.281z M251.211,148.016c21.388,0,42.776,0,64.164,0c0.236,0,0.409,0.021,0.533,0.058c0.117-0.012,0.23-0.02,0.335-0.018
	v-0.464l-65-0.5L251.211,148.016z M252.076,161.311c5.686,0,11.371,0,17.057,0l44.902-0.686c0-3.733,0-7.467,0-11.2
	c-20.653,0-41.306,0-61.958,0C252.076,153.388,252.076,157.349,252.076,161.311z M164.201,148.315
	c0.127-0.051,0.261-0.094,0.397-0.13c0.264-0.102,0.522-0.169,0.722-0.169c21.307,0,42.615,0,63.922,0v-0.424l-65-0.5
	L164.201,148.315z M166.226,161.311c5.302,0,10.605,0,15.907,0l46.052-0.703c0-3.728,0-7.455,0-11.183c-20.653,0-41.306,0-61.959,0
	C166.226,153.388,166.226,157.349,166.226,161.311z M78.165,161.311c5.656,0,11.313,0,16.968,0l44.991-0.687
	c0-3.733,0-7.466,0-11.199c-20.653,0-41.306,0-61.959,0C78.165,153.388,78.165,157.349,78.165,161.311z M77.211,148.021
	c0.016-0.001,0.034-0.004,0.049-0.004c21.401,0,42.802,0,64.204,0c0.236,0,0.409,0.021,0.533,0.058
	c0.085-0.009,0.167-0.014,0.247-0.016v-0.467l-65-0.5L77.211,148.021z M445.946,463.17c-4.389,2.055-8.954,3.865-13.167,6.25
	c-1.459,0.827-5.607,3.062-2.407,4.776c1.708,0.915,3.518,1.518,5.376,2.042c4.618,1.305,9.621,1.606,14.396,1.665
	c7.155,0.087,29.933-0.429,23.3-12.782C465.046,468.009,454.227,466.757,445.946,463.17z M540.729,473.571
	c-3.258,0.632-6.554,0.97-9.987,0.742c-4.766-0.316-10.008-0.172-14.907-0.949c4.337,6.55,12.825,10.455,20.325,11.583
	c0.976,0.146,2.551,0.408,4.143,0.45c2.003-0.231,3.846-0.746,5.114-1.874c0.085-0.172,0.158-0.355,0.208-0.557
	C546.517,479.435,543.079,475.93,540.729,473.571z M448.243,195.426c0,0,0.075-0.235,0.198-0.617
	c-0.157,0.246-0.313,0.492-0.491,0.729c-0.07,0.093-0.144,0.181-0.216,0.271C448.044,195.572,448.243,195.426,448.243,195.426z
	 M449.354,174.719c0,0,0.007-0.038,0.019-0.098l-0.526,0.041c-0.017,0.381-0.048,0.75-0.097,1.103c0.125,0.037,0.25,0.069,0.375,0.1
	L449.354,174.719z M495.297,185.013c-3.346-2.499-7.455-4.056-10.935-5.01c-2.023-0.237-4.062-0.65-6.019-1.25
	c-0.852-0.121-1.354-0.165-1.354-0.165s-0.2,0.153-0.536,0.393c-4.975,4.143-15.246,7.717-20.711,5.179
	c-0.58-0.269-1.107-0.603-1.566-1.016c-1.292-1.164-2.06-2.923-2.033-5.429c-1.283,0.392-2.624,0.418-3.943,0.178
	c-0.595,1.509-1.585,2.805-3.011,4.086c-3.476,3.124-5.762,7.051-7.537,11.325c-2.566,6.18-4.875,12.426-7.908,18.349
	c0.192,0.165,0.304,0.404,0.265,0.736c-1.094,9.379,4.76,17.559,5.099,26.771c0.327,8.885-1.974,17.001-3.994,25.55
	c-0.021,0.089-0.056,0.173-0.099,0.254c2.408,2.556,5.222,4.554,8.323,6.065c1.526,0.663,3.175,1.321,4.91,1.932
	c14.073,4.382,31.975,1.026,44.327-4.028c-2.79-7.343-2.122-14.476-1.446-22.253c0.009-0.109,0.045-0.209,0.09-0.305l-0.156-0.108
	c-2.187-0.728-4.269-1.748-6.051-2.871c-7.073-4.455-13.824-10.185-20.012-15.802c-3.226-2.928-5.848-7.064-9.001-10.343
	c-0.199-0.007-0.394-0.039-0.576-0.125c-0.337-0.16-0.342-0.424-0.213-0.665c-1.203-1.156-2.493-2.169-3.926-2.936
	c-0.38,0.132-0.762,0.195-1.024,0.126c-7.639-2.005-9.453-8.396-4.685-14.561c1.481-1.916,3.794-3.108,4.84-5.375
	c0.882-1.912,1.391-4.027,2.363-5.893c1.104-2.116,2.449-3.789,4.995-3.66c0.207,0.011,0.397,0.046,0.575,0.101
	c0.687,0.209,1.167,0.731,1.514,1.421c1.052,2.089,0.835,5.755,1.09,7.24c0.64,3.729,2.94,7.773,5.675,11.125
	c0.035,0.011,0.073,0.008,0.107,0.021c1.449,0.585,2.98,1.286,4.145,2.355c0.692,0.636,1.435,1.466,1.537,2.45
	c0.027,0.26,0.023,0.508-0.007,0.746c3.843,2.89,8.171,5.008,12.308,7.397c-1.605-6.061-0.828-12.439-0.766-18.667
	c0.012-1.144,2.933-1.675,2.919-0.285c-0.068,6.773-1,13.698,1.371,20.204c0.104,0.287-0.002,0.554-0.226,0.774
	c0.235,0.155,0.475,0.305,0.708,0.464c0.063-0.344,0.81-0.885,1.54-1.012c6.042-1.054,12.754-1.556,18.859-0.142
	c-0.087-3.873-0.457-7.71-1.035-11.36C502.843,199.151,500.47,191.011,495.297,185.013z"></path>
<path id="color_x5F_1" d="M458.767,131.653c-2.138,1.527-6.87,4.266-4.947,7.479c0.627,1.05-2.192,1.972-2.689,1.141
	c-2.489-4.161,2.971-7.455,5.833-9.501C457.882,130.116,460.365,130.511,458.767,131.653z M450.233,144.599
	c0.022-0.329-2.843-0.031-2.897,0.776c-0.037,0.54-0.092,1.051,0.265,1.496c0.301,0.376,1.182,0.108,1.555,0.008
	c0.097-0.026,1.567-0.504,1.342-0.785C450.142,145.65,450.197,145.139,450.233,144.599z M466.673,136.634
	c0.763,0.101,1.49-0.253,1.884-0.899c0.417-0.685,0.853-1.247,0.943-2.072c0.167-1.528-2.793-1.15-2.94,0.203
	c-0.063,0.579-0.467,0.984-0.783,1.502C465.388,136.008,466.119,136.561,466.673,136.634z M450.137,132.364
	c0.604,0.256,1.515,0.048,2.046-0.293c0.917-0.59,1.801-1.194,2.233-2.236c0.25-0.602-0.972-0.579-1.23-0.544
	c-0.587,0.081-1.408,0.338-1.658,0.94c-0.219,0.527-0.678,0.808-1.114,1.088C450.075,131.537,449.491,132.09,450.137,132.364z
	 M550.71,470.25c-0.028,0.395-0.354,0.826-1.082,1.041c-1.956,0.58-3.893,1.125-5.832,1.601c2.53,2.579,6.677,7.195,4.229,10.548
	c-1.885,2.582-5.857,3.233-8.839,3.209c-10.042-0.08-22.39-4.806-27.231-14.168c-0.252-0.075-0.513-0.13-0.761-0.213
	c-6.434-2.141-7.115-7.294-8.75-13.389c-2.294-8.552-4.139-17.211-6.235-25.812c-4.876-20.001-12.682-39.141-18.954-58.733
	c-5.664-17.689-11.141-35.439-17.221-52.989c-1.477,47.143-6.587,96.745,22.171,137.443c0.132,0.186,0.163,0.396,0.001,0.588
	c-1.658,1.958-3.718,3.475-6.035,4.616c7.837,14.711-18.433,16.142-27.046,15.947c-6.135-0.139-17.17-0.122-21.927-4.805
	c-4.827-4.753,10.261-10.754,16.277-13.146c-1.809-0.951-3.455-2.016-4.862-3.179c-0.084-0.069-0.121-0.145-0.131-0.223
	c-0.406-0.001-0.707-0.1-0.708-0.321c-0.036-5.993-0.387-11.949-0.964-17.879c-0.073,0.012-0.142,0.019-0.205,0.019
	c-130.073,0-260.146,0-390.22,0c-0.659,0.177-1.363,0.183-1.568-0.047c-0.413-0.098-0.348-0.344-0.064-0.603
	c0-106.152,0-212.305,0-318.458c0-0.383,0.44-0.69,0.976-0.882c-0.145,0-0.289,0-0.434,0c-1.946,0,0.261-1.409,1.19-1.409
	c130.411,0,260.823,0,391.235,0c0.861-0.497,2.321-0.394,2.321,0.69c0,1.831,0,3.661,0,5.491c1.697-2.295,4.836-4.079,8.079-6.221
	c2.113-1.987,4.258-3.929,6.701-5.547c2.282-2.197,5.407-3.261,8.334-3.748c5.062-1.317,10.264-0.997,15.505,1.087
	c0.335,0.133,0.515,0.307,0.585,0.496c0.298-0.141,0.599-0.242,0.823-0.256c5.75-0.366,10.571,1.87,14.006,5.559
	c3.037,2.294,5.377,5.641,5.244,10.565c0.306,1.568,0.46,3.187,0.442,4.828c-0.022,2.038-0.387,4.162-0.851,6.143
	c-0.098,0.419-0.159,0.767-0.203,1.089c0.185,1.34,0.48,2.559,0.908,3.646c0.081,0.163,0.161,0.32,0.25,0.507
	c2.09,4.381,5.63,5.948,10.155,7.015c5.928,1.397,13.791,4.53,17.235,9.895c2.361,3.677,2.545,7.475,0.777,11.46
	c-2.046,4.611-2.938,8.274-0.113,12.746c3.625,5.738,6.009,13.641,4.789,20.479c-0.243,1.362-0.613,2.611-1.081,3.765
	c-0.603,2.729-1.889,5.059-4.344,6.368c-0.26,0.139-0.523,0.274-0.789,0.407c-4.361,3.386-10.363,4.752-16.34,4.824
	c-1.202,0.185-1.988,0.272-2.17,0.291c0.068,8.267-0.923,17.444-6.159,23.176c-3.162,3.461-7.533,4.076-11.813,3.275
	c-0.626,7.216-1.167,13.934,1.326,20.78c0.353,0.022,0.655,0.152,0.8,0.426c8.083,15.313,12.338,32.149,15.187,49.141
	c2.816,16.801,3.781,34.189,7.771,50.762c4.242,17.616,13.042,33.651,18.567,50.849c5.426,16.89,8.018,34.903,17.06,50.426
	C550.896,469.719,550.863,470.003,550.71,470.25z M487.242,246.328c-0.061-0.02-0.119-0.043-0.18-0.063
	c-2.187-0.728-4.269-1.748-6.051-2.871c-7.073-4.455-13.824-10.185-20.012-15.802c-3.226-2.928-5.848-7.064-9.001-10.343
	c-0.199-0.007-0.394-0.039-0.576-0.125c-0.337-0.16-0.342-0.424-0.213-0.665c-1.203-1.156-2.493-2.169-3.926-2.936
	c-0.38,0.132-0.762,0.195-1.024,0.126c-7.639-2.005-9.453-8.396-4.685-14.561c1.481-1.916,3.794-3.108,4.84-5.375
	c0.882-1.912,1.391-4.027,2.363-5.893c1.104-2.116,2.449-3.789,4.995-3.66c0.207,0.011,0.397,0.046,0.575,0.101
	c0.687,0.209,1.167,0.731,1.514,1.421c1.052,2.089,0.835,5.755,1.09,7.24c0.64,3.729,2.94,7.773,5.675,11.125
	c0.035,0.011,0.073,0.008,0.107,0.021c1.449,0.585,2.98,1.286,4.145,2.355c0.692,0.636,1.435,1.466,1.537,2.45
	c0.027,0.26,0.023,0.508-0.007,0.746c3.843,2.89,8.171,5.008,12.308,7.397c-1.605-6.061-0.828-12.439-0.766-18.667
	c0.012-1.144,2.933-1.675,2.919-0.285c-0.068,6.773-1,13.698,1.371,20.204c0.104,0.287-0.002,0.554-0.226,0.774
	c0.235,0.155,0.475,0.305,0.708,0.464c0.063-0.344,0.81-0.885,1.54-1.012c6.042-1.054,12.754-1.556,18.859-0.142
	c-0.087-3.873-0.457-7.71-1.035-11.36c-1.243-7.842-3.616-15.982-8.789-21.98c-3.346-2.499-7.455-4.056-10.935-5.01
	c-2.023-0.237-4.062-0.65-6.019-1.25c-0.852-0.121-1.354-0.165-1.354-0.165s-0.02-0.01-0.049-0.025
	c-0.154,0.14-0.319,0.279-0.486,0.418c-4.975,4.143-15.246,7.717-20.711,5.179c-0.58-0.269-1.107-0.603-1.566-1.016
	c-1.292-1.164-2.06-2.923-2.033-5.429c-1.283,0.392-2.624,0.418-3.943,0.178c-0.595,1.509-1.585,2.805-3.011,4.086
	c-3.476,3.124-5.762,7.051-7.537,11.325c-2.566,6.18-4.875,12.426-7.908,18.349c0.192,0.165,0.304,0.404,0.265,0.736
	c-1.094,9.379,4.76,17.559,5.099,26.771c0.327,8.885-1.974,17.001-3.994,25.55c-0.021,0.089-0.056,0.173-0.099,0.254
	c2.408,2.556,5.222,4.554,8.323,6.065c1.569,0.765,3.212,1.403,4.91,1.932c14.073,4.382,31.975,1.026,44.327-4.028
	c-2.79-7.343-2.122-14.476-1.446-22.253c0.009-0.109,0.045-0.209,0.09-0.305C487.226,246.358,487.234,246.344,487.242,246.328z
	 M435.476,192.054c1.158-2.557,2.477-4.995,4.302-7.15c2.227-2.628,5.038-4.596,5.915-7.845c-0.351-0.331-0.177-0.763,0.222-1.109
	c0.032-0.271,0.052-0.552,0.058-0.842c0.006-0.356,0.345-0.646,0.786-0.848c-2.457-1.162-2.102-6.386-2.72-8.548
	c-0.2-0.7,2.691-1.497,2.897-0.776c0.672,2.35,0.353,5.164,1.552,7.35c0.462,0.843,0.908,0.676,1.278,0.115
	c0.262-1.629,0.576-3.887,0.703-6.016c-0.179-0.951-0.464-1.881-0.885-2.753c-0.856-1.775-1.915-3.079-3.693-3.973
	c-0.903-0.454-2.309-1.1-3.771-1.494c-1.013-0.025-2.1-0.027-3.265-0.027c-0.412,0-0.787,0.088-1.134,0.236
	c-0.213,0.141-0.414,0.301-0.587,0.506c-2.763,3.278-1.333,8.506-1.251,12.41c0.006,0.266-0.262,0.494-0.635,0.667
	c-0.714,4.282-5.977,9.031-8.55,11.904c-4.579,5.111-9.379,10.27-14.753,14.562c-1.87,1.493-4.3,2.621-5.356,4.875
	c-1.328,2.834-1.376,6.189-0.421,9.153c0.905,2.807,2.403,5.678,4.874,7.427c4.588,3.248,8.928,0.992,12.559-2.571
	c0.095-0.094,0.235-0.173,0.396-0.24C428.941,209.19,431.661,200.477,435.476,192.054z M465.201,210.382
	c0.006-0.008,0.008-0.01,0.016-0.019c0.008-0.009,0.015-0.02,0.023-0.03c-0.901-0.713-1.792-1.482-2.657-2.3
	c-0.326,0.615-1.071,0.863-1.733,0.832c0.046,0.16,0.088,0.321,0.152,0.474c0.016,0.037,0.025,0.062,0.032,0.079
	c0.008,0.013,0.013,0.022,0.024,0.042c0.044,0.081,0.088,0.161,0.138,0.238c0.107,0.166,0.223,0.328,0.355,0.475
	c0.019,0.021,0.039,0.042,0.059,0.063c0.06,0.054,0.121,0.107,0.184,0.157c0.126,0.098,0.257,0.19,0.395,0.272
	c0.052,0.025,0.104,0.05,0.158,0.072c0.111,0.047,0.223,0.091,0.338,0.128c0.031,0.01,0.063,0.019,0.094,0.028
	c0.109,0.023,0.219,0.044,0.33,0.059c0.099,0.013,0.197,0.02,0.296,0.027c0.062,0,0.128,0.001,0.167-0.001
	c0.119-0.006,0.238-0.013,0.356-0.027c0.018-0.002,0.023-0.002,0.038-0.004c0.184-0.038,0.364-0.093,0.542-0.15
	c0.119-0.054,0.342-0.151,0.43-0.201c0.015-0.012,0.023-0.019,0.044-0.034C465.056,210.504,465.13,210.444,465.201,210.382z
	 M453.367,215.063c1.741-1.05,3.358-2.331,4.528-3.999c0.117-0.167,0.282-0.297,0.464-0.409c-0.298-0.585-0.511-1.2-0.587-1.856
	c-0.113-0.972-0.317-2.565,0.621-3.168c0.354-0.228,0.838-0.461,1.345-0.595c-2.275-2.678-4.124-5.651-5.042-8.658
	c-0.553-1.81-0.668-3.503-0.854-5.372c-0.086-0.866-0.531-6.616-1.798-4.186c-1.367,2.622-2.013,5.514-3.601,7.991
	c-0.157,0.246-0.313,0.492-0.491,0.729c-0.07,0.093-0.144,0.181-0.216,0.271c-2.108,2.634-5.253,4.283-5.89,7.963
	c-0.792,4.578,1.957,7.176,6.184,8.286c0.072,0.019,0.127,0.042,0.184,0.065c0.337-0.083,0.648-0.11,0.854-0.021
	C450.738,212.831,452.126,213.866,453.367,215.063z M448.75,175.764c0.125,0.037,0.25,0.069,0.375,0.1l0.229-1.146
	c0,0,0.007-0.038,0.019-0.098c0.016-0.081,0.04-0.206,0.072-0.381c-0.187,0.053-0.378,0.1-0.58,0.137
	c-0.002,0.099-0.014,0.188-0.018,0.285C448.831,175.042,448.799,175.411,448.75,175.764z M454.175,175.947
	c0.051,0.108,0.072,0.225,0.059,0.348c0.046-0.135,0.094-0.271,0.139-0.404L454.175,175.947z M455.043,177.313
	c-0.159,10.108,15.362,5.333,20.084,0.237c-1.768-0.795-3.408-1.774-4.823-2.967c-1.738-1.465-2.688-3.01-3.092-4.604
	c-0.479-1.153-0.607-2.352-0.171-3.551c0.044-0.122,0.093-0.251,0.139-0.375c0.395-1.992,1.311-4.023,2.339-6.042
	c1.875-4.714,3.779-9.393,4.155-11.27c0.001-0.007,0.001-0.015,0.003-0.022c-0.249-1.204-0.919-1.996-1.612-3.077
	c-0.745-0.883-1.44-1.846-1.347-3.062c-0.336-1.681,0.268-3.045,1.791-4.87c2.544-3.048,4.305-5.122,4.756-9.143
	c0.485-4.328-1.801-6.129-5.248-6.908l-0.001,0l-0.003-0.001c-0.857-0.194-1.782-0.327-2.758-0.417
	c-1.132-0.104-0.979-0.706-0.423-1.174l-0.296-0.148c-0.612,0.419-1.563,0.558-2.192,0.42c-1.45-0.318-2.028-1.563-2.875-2.186
	c-0.567-0.031-1.28-0.054-2.157-0.06c-0.511,0.235-1.11,0.613-1.854,1.216c-3.612,2.928-7.077,6.765-9.8,10.54
	c-4.644,6.438-7.568,15.749-1.743,22.489c2.675,3.095,6.571,5.117,8.91,8.49c3.355,4.84,1.91,10.531,0.044,15.679
	C456.711,176.941,455.8,177.238,455.043,177.313z M505.139,220.23c-6.135-1.999-13.111-1.581-19.37-0.489
	c-0.276,0.048-0.485,0.062-0.647,0.053c2.489,1.743,4.801,3.749,6.751,6.307c0.716,0.939-2.079,1.941-2.689,1.141
	c-5.254-6.893-13.241-10.044-20.388-14.409c-0.537-0.328-1.081-0.69-1.626-1.068c-0.585,0.507-1.306,0.893-2.05,1.139
	c-1.728,0.57-3.905,0.41-5.417-0.667c-1.44,1.646-3.26,2.968-5.167,4.043c2.321,2.583,4.216,5.642,6.743,8.067
	c4.956,4.757,10.452,9.177,15.863,13.408c4.5,3.519,10.044,7.854,15.958,8.466c5.365,0.554,8.213-4.124,9.601-8.557
	C504.413,232.197,505.127,226.201,505.139,220.23z M436.665,438.997c-3.225-31.248-12.544-61.802-15.057-93.179
	c-1.231-15.378-2.094-30.893-1.3-46.317c0.587-11.409,1.372-24.348,7.471-34.366c0.057-0.094,0.107-0.192,0.165-0.286
	c0.009-0.014,0.024-0.027,0.036-0.042c0.042-0.045,0.086-0.09,0.138-0.132c0.007-0.006,0.014-0.01,0.021-0.016
	c0.028-0.021,0.054-0.041,0.085-0.06c0.008-0.005,0.016-0.011,0.024-0.017c2.036-8.509,5.198-17.685,3.772-26.542
	c-1.164-7.229-4.641-14.168-5.051-21.478c-0.201,0.326-0.387,0.659-0.594,0.981c-0.107,0.167-0.347,0.313-0.639,0.428
	c-4.563,4.381-11.749,7.68-17.388,3.045c-1.285-1.056-2.424-2.407-3.354-3.921c0,2.571,0,5.142,0,7.713
	c0,0.785-1.836,1.251-2.583,1.057c-0.058,0.008-0.114,0.014-0.165,0.014c-21.286,0-42.573,0-63.859,0
	c-0.545,0.075-1.009,0.01-1.106-0.216c-0.001-0.002-0.002-0.004-0.003-0.007c-0.01-0.025-0.037-0.042-0.037-0.072
	c0-18.255,0-36.51,0-54.765c0-0.06,0.011-0.119,0.032-0.175c0-0.412,1.3-1.123,1.961-1.123c21.401,0,42.802,0,64.204,0
	c0.458,0,0.679,0.08,0.748,0.199c0.457-0.016,0.81,0.081,0.81,0.323c0,10.573,0,21.146,0,31.72c1.308-1.477,2.952-2.454,4.621-3.832
	c2.98-2.461,5.784-5.143,8.492-7.898c3.547-3.608,7.051-7.307,10.164-11.302c1.394-1.789,3.74-4.248,4.112-6.666
	c-0.155-0.069-0.289-0.169-0.384-0.311c-2.615-3.891-5.442-8.535-4.786-13.456c0.62-4.646,3.308-7.613,6.064-11.208
	c3.323-4.335,3.156-8.269,3.827-12.93c0-4.612,0-9.225,0-13.837c-0.183,0.056-0.356,0.092-0.499,0.092
	c-129.661,0-259.323,0-388.984,0c0.018,0.032,0.029,0.066,0.029,0.105c0,106.159,0,212.316,0,318.475
	C177.321,438.997,306.993,438.997,436.665,438.997z M402.096,224.471c0-17.846,0-35.693,0-53.539c-20.653,0-41.306,0-61.959,0
	c0,17.846,0,35.693,0,53.539C360.79,224.471,381.443,224.471,402.096,224.471z M473.446,465.122c-8.4,2.887-19.219,1.635-27.5-1.952
	c-4.389,2.055-8.954,3.865-13.167,6.25c-1.459,0.827-5.607,3.062-2.407,4.776c1.708,0.915,3.518,1.518,5.376,2.042
	c4.618,1.305,9.621,1.606,14.396,1.665C457.301,477.991,480.079,477.475,473.446,465.122z M545.416,483.523
	c0.085-0.172,0.158-0.355,0.208-0.557c0.892-3.532-2.546-7.037-4.896-9.396c-3.258,0.632-6.554,0.97-9.987,0.742
	c-4.766-0.316-10.008-0.172-14.907-0.949c4.337,6.55,12.825,10.455,20.325,11.583c0.976,0.146,2.551,0.408,4.143,0.45
	C542.45,485.455,544.627,485.109,545.416,483.523z M547.669,469.948c-8.566-15.093-11.15-32.27-16.4-48.609
	c-5.496-17.105-14.44-33.186-18.653-50.682c-4.008-16.645-5.083-33.969-7.91-50.835c-2.84-16.943-6.775-33.829-14.649-49.198
	c-0.036-0.002-0.071-0.006-0.107-0.011c-17.684,7.274-45.67,11.235-60.698-3.448c-5.61,10.863-5.977,25.022-6.236,36.784
	c-0.318,14.458,0.445,28.923,1.674,43.325c3.159,37.027,15.756,72.89,15.98,110.216c0,0,0,0.001,0,0.001
	c0.257,0.008,0.482,0.065,0.634,0.191c1.57,1.298,3.335,2.362,5.198,3.261c0.434,0.032,0.802,0.223,0.996,0.486
	c3.733,1.637,7.839,2.57,11.768,2.993c3.91,0.421,8.074,0.571,11.921-0.401c1.586-0.401,9.365-2.537,7.306-5.546
	c-9.122-13.331-15.499-28.279-18.818-44.097c-6.806-32.434-3.149-65.732-2.374-98.541c0.006-0.26,0.235-0.493,0.558-0.671
	c-0.553-1.552-1.099-3.104-1.664-4.652c-0.42-1.15,2.46-1.976,2.897-0.776c7.23,19.818,13.443,39.974,19.857,60.065
	c5.677,17.785,12.94,35.265,17.8,53.276c2.216,8.211,4.04,16.516,6.016,24.787c0.928,3.882,1.859,7.769,2.953,11.608
	c0.84,2.949,1.473,8.298,4.47,9.86c5.993,3.124,14.006,2.552,20.571,2.988C536.711,472.719,542.042,471.561,547.669,469.948z
	 M143.021,170.044c0,18.255,0,36.51,0,54.765c0,0.785-1.836,1.251-2.583,1.058c-0.058,0.008-0.113,0.014-0.164,0.014
	c-21.286,0-42.573,0-63.86,0c-0.546,0.075-1.012,0.009-1.107-0.218c0-0.001-0.001-0.002-0.002-0.004
	c-0.01-0.026-0.037-0.043-0.037-0.073c0-18.255,0-36.51,0-54.765c0-0.061,0.011-0.12,0.032-0.177
	c0.004-0.412,1.301-1.121,1.961-1.121c21.401,0,42.802,0,64.204,0c0.457,0,0.679,0.08,0.748,0.199
	C142.668,169.706,143.021,169.803,143.021,170.044z M78.165,224.471c20.653,0,41.306,0,61.959,0c0-17.846,0-35.693,0-53.539
	c-20.653,0-41.306,0-61.959,0C78.165,188.778,78.165,206.625,78.165,224.471z M143.021,148.382c0,4.417,0,8.834,0,13.252
	c0,0.771-1.771,1.234-2.542,1.066c-0.073,0.012-0.143,0.02-0.206,0.02c-21.331,0-42.663,0-63.994,0
	c-0.482,0.047-0.875-0.021-0.971-0.222c-0.003-0.008-0.009-0.015-0.011-0.023c-0.007-0.022-0.03-0.039-0.03-0.064
	c0-4.417,0-8.834,0-13.252c0-0.453,0.611-0.797,1.272-0.974c0.243-0.094,0.48-0.156,0.672-0.165
	c0.016-0.001,0.034-0.004,0.049-0.004c21.401,0,42.802,0,64.204,0c0.236,0,0.409,0.021,0.533,0.058
	c0.085-0.009,0.167-0.014,0.247-0.016C142.685,148.049,143.021,148.146,143.021,148.382z M95.133,161.311
	c14.997,0,29.994,0,44.991,0c0-0.229,0-0.458,0-0.687c0-3.733,0-7.466,0-11.199c-20.653,0-41.306,0-61.959,0
	c0,3.962,0,7.923,0,11.886C83.821,161.311,89.477,161.311,95.133,161.311z M231.082,170.044c0,18.255,0,36.51,0,54.765
	c0,0.785-1.836,1.251-2.583,1.057c-0.058,0.008-0.114,0.014-0.165,0.014c-21.286,0-42.573,0-63.859,0
	c-0.545,0.075-1.009,0.01-1.106-0.216c-0.001-0.002-0.003-0.004-0.003-0.007c-0.01-0.025-0.037-0.042-0.037-0.072
	c0-18.255,0-36.51,0-54.765c0-0.06,0.012-0.119,0.032-0.175c0-0.412,1.3-1.123,1.961-1.123c21.401,0,42.802,0,64.204,0
	c0.458,0,0.679,0.08,0.748,0.199C230.729,169.706,231.082,169.803,231.082,170.044z M166.226,224.471c20.653,0,41.306,0,61.959,0
	c0-17.846,0-35.693,0-53.539c-20.653,0-41.306,0-61.959,0C166.226,188.778,166.226,206.625,166.226,224.471z M231.082,148.382
	c0,4.417,0,8.834,0,13.252c0,0.771-1.771,1.234-2.542,1.066c-0.073,0.012-0.143,0.02-0.206,0.02c-21.331,0-42.663,0-63.994,0
	c-0.552,0.054-1.012-0.033-1.012-0.31c0-4.417,0-8.834,0-13.252c0-0.358,0.385-0.65,0.873-0.843c0.127-0.051,0.261-0.094,0.397-0.13
	c0.264-0.102,0.522-0.169,0.722-0.169c21.307,0,42.615,0,63.922,0c0.094,0,0.188,0,0.281,0c0.236,0,0.409,0.021,0.533,0.058
	C230.615,148.017,231.082,148.104,231.082,148.382z M182.133,161.311c15.351,0,30.701,0,46.052,0c0-0.234,0-0.469,0-0.703
	c0-3.728,0-7.455,0-11.183c-20.653,0-41.306,0-61.959,0c0,3.962,0,7.923,0,11.886C171.528,161.311,176.831,161.311,182.133,161.311z
	 M316.932,170.044c0,18.255,0,36.51,0,54.765c0,0.785-1.836,1.251-2.583,1.058c-0.058,0.008-0.113,0.014-0.164,0.014
	c-21.287,0-42.573,0-63.859,0c-0.544,0.075-1.007,0.01-1.106-0.215c-0.001-0.003-0.003-0.006-0.004-0.009
	c-0.01-0.024-0.036-0.042-0.036-0.071c0-18.255,0-36.51,0-54.765c0-0.06,0.012-0.118,0.032-0.173
	c-0.004-0.411,1.299-1.125,1.96-1.125c21.401,0,42.803,0,64.204,0c0.457,0,0.679,0.08,0.748,0.199
	C316.58,169.706,316.932,169.803,316.932,170.044z M252.076,224.471c20.653,0,41.306,0,61.958,0c0-17.846,0-35.693,0-53.539
	c-20.653,0-41.306,0-61.958,0C252.076,188.778,252.076,206.625,252.076,224.471z M316.932,148.382c0,4.417,0,8.834,0,13.252
	c0,0.771-1.771,1.234-2.542,1.066c-0.073,0.012-0.143,0.02-0.206,0.02c-21.331,0-42.663,0-63.994,0
	c-0.552,0.054-1.012-0.033-1.012-0.31c0-4.417,0-8.834,0-13.252c0-0.452,0.61-0.796,1.27-0.973c0.264-0.102,0.523-0.169,0.723-0.169
	c0.014,0,0.027,0,0.041,0c21.388,0,42.776,0,64.164,0c0.236,0,0.409,0.021,0.533,0.058c0.117-0.012,0.23-0.02,0.335-0.018
	C316.641,148.061,316.932,148.162,316.932,148.382z M269.133,161.311c14.967,0,29.935,0,44.902,0c0-0.229,0-0.457,0-0.686
	c0-3.733,0-7.467,0-11.2c-20.653,0-41.306,0-61.958,0c0,3.962,0,7.923,0,11.886C257.762,161.311,263.447,161.311,269.133,161.311z
	 M337.24,162.411c0-4.417,0-8.834,0-13.252c0-0.38,0.433-0.685,0.962-0.877c0.1-0.036,0.204-0.068,0.309-0.096
	c0.263-0.102,0.522-0.169,0.722-0.169c21.336,0,42.674,0,64.011,0c0.064,0,0.128,0,0.193,0c0.236,0,0.409,0.021,0.533,0.058
	c0.558-0.057,1.025,0.029,1.025,0.308c0,4.417,0,8.834,0,13.252c0,0.771-1.771,1.234-2.542,1.066
	c-0.073,0.012-0.143,0.02-0.206,0.02c-21.331,0-42.663,0-63.994,0C337.7,162.774,337.24,162.688,337.24,162.411z M402.096,149.425
	c-20.653,0-41.306,0-61.959,0c0,3.962,0,7.923,0,11.886c5.332,0,10.664,0,15.996,0c15.321,0,30.642,0,45.963,0
	c0-0.234,0-0.468,0-0.702C402.096,156.881,402.096,153.153,402.096,149.425z M143.021,265.479c0,18.255,0,36.51,0,54.765
	c0,0.785-1.836,1.251-2.583,1.058c-0.058,0.008-0.113,0.014-0.164,0.014c-21.286,0-42.573,0-63.86,0
	c-0.546,0.075-1.012,0.009-1.107-0.218c0-0.001-0.001-0.002-0.002-0.004c-0.01-0.026-0.037-0.043-0.037-0.073
	c0-18.255,0-36.51,0-54.765c0-0.061,0.011-0.12,0.032-0.177c0.004-0.412,1.301-1.121,1.961-1.121c21.401,0,42.802,0,64.204,0
	c0.457,0,0.679,0.08,0.748,0.199C142.668,265.141,143.021,265.237,143.021,265.479z M78.165,319.906c20.653,0,41.306,0,61.959,0
	c0-17.846,0-35.693,0-53.539c-20.653,0-41.306,0-61.959,0C78.165,284.213,78.165,302.06,78.165,319.906z M143.021,243.817
	c0,4.417,0,8.834,0,13.251c0,0.771-1.767,1.233-2.54,1.067c-0.074,0.012-0.145,0.02-0.208,0.02c-21.334,0-42.669,0-64.003,0
	c-0.355,0.034-0.657,0.001-0.835-0.095c0,0,0,0,0,0c-0.063-0.034-0.104-0.078-0.128-0.13c-0.002-0.007-0.008-0.014-0.01-0.021
	c-0.007-0.022-0.029-0.038-0.029-0.063c0-4.417,0-8.834,0-13.251c0-0.453,0.611-0.797,1.272-0.974
	c0.251-0.097,0.497-0.161,0.691-0.167c0.01,0,0.021-0.002,0.03-0.002c15.546,0,31.092,0,46.638,0c5.855,0,11.71,0,17.565,0
	c0.236,0,0.409,0.021,0.533,0.058C142.554,243.452,143.021,243.538,143.021,243.817z M132.169,256.746c2.651,0,5.303,0,7.955,0
	c0-0.041,0-0.081,0-0.122c0-3.921,0-7.843,0-11.764c-20.653,0-41.306,0-61.959,0c0,3.962,0,7.924,0,11.886
	C96.166,256.746,114.167,256.746,132.169,256.746z M231.082,265.479c0,18.255,0,36.51,0,54.765c0,0.785-1.836,1.251-2.583,1.057
	c-0.058,0.008-0.114,0.014-0.165,0.014c-21.286,0-42.573,0-63.859,0c-0.545,0.075-1.009,0.01-1.106-0.216
	c-0.001-0.002-0.003-0.004-0.003-0.007c-0.01-0.025-0.037-0.042-0.037-0.072c0-18.255,0-36.51,0-54.765
	c0-0.06,0.012-0.119,0.032-0.175c0-0.412,1.3-1.123,1.961-1.123c21.401,0,42.802,0,64.204,0c0.458,0,0.679,0.08,0.748,0.199
	C230.729,265.141,231.082,265.237,231.082,265.479z M166.226,319.906c20.653,0,41.306,0,61.959,0c0-17.846,0-35.693,0-53.539
	c-20.653,0-41.306,0-61.959,0C166.226,284.213,166.226,302.06,166.226,319.906z M231.082,243.817c0,4.417,0,8.834,0,13.251
	c0,0.771-1.768,1.233-2.54,1.067c-0.074,0.012-0.145,0.02-0.208,0.02c-21.334,0-42.668,0-64.003,0
	c-0.548,0.052-1.003-0.035-1.003-0.311c0-4.417,0-8.834,0-13.251c0-0.364,0.395-0.658,0.893-0.852
	c0.122-0.047,0.249-0.087,0.378-0.121c0.264-0.102,0.522-0.169,0.722-0.169c15.192,0,30.385,0,45.578,0c6.208,0,12.417,0,18.626,0
	c0.236,0,0.409,0.021,0.533,0.058C230.615,243.452,231.082,243.538,231.082,243.817z M219.169,256.746c3.005,0,6.01,0,9.016,0
	c0-0.046,0-0.092,0-0.138c0-3.916,0-7.832,0-11.748c-20.653,0-41.306,0-61.959,0c0,3.962,0,7.924,0,11.886
	C183.873,256.746,201.521,256.746,219.169,256.746z M316.932,265.479c0,18.255,0,36.51,0,54.765c0,0.785-1.836,1.251-2.583,1.058
	c-0.058,0.008-0.113,0.014-0.164,0.014c-21.287,0-42.573,0-63.859,0c-0.544,0.075-1.007,0.01-1.106-0.215
	c-0.001-0.003-0.003-0.006-0.004-0.009c-0.01-0.024-0.036-0.042-0.036-0.071c0-18.255,0-36.51,0-54.765
	c0-0.06,0.012-0.118,0.032-0.173c-0.004-0.411,1.299-1.125,1.96-1.125c21.401,0,42.803,0,64.204,0c0.457,0,0.679,0.08,0.748,0.199
	C316.58,265.141,316.932,265.237,316.932,265.479z M252.076,319.906c20.653,0,41.306,0,61.958,0c0-17.846,0-35.693,0-53.539
	c-20.653,0-41.306,0-61.958,0C252.076,284.213,252.076,302.06,252.076,319.906z M316.932,243.817c0,4.417,0,8.834,0,13.251
	c0,0.771-1.767,1.233-2.54,1.067c-0.074,0.012-0.145,0.02-0.208,0.02c-21.334,0-42.668,0-64.003,0c-0.362,0.035-0.67,0-0.847-0.101
	c0,0,0,0-0.001,0c-0.09-0.052-0.155-0.116-0.155-0.209c0-4.417,0-8.834,0-13.251c0-0.452,0.61-0.796,1.27-0.973
	c0.264-0.102,0.523-0.169,0.723-0.169c0.02,0,0.04,0,0.06,0c15.556,0,31.112,0,46.667,0c5.826,0,11.651,0,17.477,0
	c0.236,0,0.409,0.021,0.533,0.058C316.465,243.452,316.932,243.538,316.932,243.817z M306.169,256.746c2.622,0,5.244,0,7.866,0
	c0-0.04,0-0.08,0-0.12c0-3.922,0-7.844,0-11.766c-20.653,0-41.306,0-61.958,0c0,3.962,0,7.924,0,11.886
	C270.107,256.746,288.138,256.746,306.169,256.746z M404.994,265.479c0,18.255,0,36.51,0,54.765c0,0.785-1.836,1.251-2.583,1.057
	c-0.058,0.008-0.114,0.014-0.165,0.014c-21.286,0-42.573,0-63.859,0c-0.545,0.075-1.009,0.01-1.106-0.216
	c-0.001-0.002-0.002-0.004-0.003-0.007c-0.01-0.025-0.037-0.042-0.037-0.072c0-18.255,0-36.51,0-54.765
	c0-0.06,0.011-0.119,0.032-0.175c0-0.412,1.3-1.123,1.961-1.123c21.401,0,42.802,0,64.204,0c0.458,0,0.679,0.08,0.748,0.199
	C404.641,265.141,404.994,265.237,404.994,265.479z M340.137,319.906c20.653,0,41.306,0,61.959,0c0-17.846,0-35.693,0-53.539
	c-20.653,0-41.306,0-61.959,0C340.137,284.213,340.137,302.06,340.137,319.906z M404.994,243.817c0,4.417,0,8.834,0,13.251
	c0,0.771-1.768,1.233-2.54,1.067c-0.074,0.012-0.145,0.02-0.208,0.02c-21.334,0-42.668,0-64.003,0
	c-0.548,0.052-1.003-0.035-1.003-0.311c0-4.417,0-8.834,0-13.251c0-0.385,0.443-0.692,0.982-0.884
	c0.094-0.033,0.19-0.063,0.289-0.089c0.263-0.102,0.522-0.169,0.722-0.169c15.222,0,30.444,0,45.666,0c6.179,0,12.358,0,18.538,0
	c0.236,0,0.409,0.021,0.533,0.058C404.526,243.452,404.994,243.538,404.994,243.817z M393.169,256.746c2.976,0,5.951,0,8.927,0
	c0-0.045,0-0.091,0-0.136c0-3.917,0-7.833,0-11.75c-20.653,0-41.306,0-61.959,0c0,3.962,0,7.924,0,11.886
	C357.814,256.746,375.491,256.746,393.169,256.746z M143.021,360.915c0,18.254,0,36.509,0,54.764c0,0.785-1.836,1.251-2.583,1.058
	c-0.058,0.008-0.113,0.014-0.164,0.014c-21.286,0-42.573,0-63.86,0c-0.546,0.075-1.012,0.009-1.107-0.218
	c0-0.001-0.001-0.002-0.002-0.004c-0.01-0.026-0.037-0.043-0.037-0.073c0-18.254,0-36.509,0-54.764c0-0.061,0.011-0.121,0.032-0.177
	c0.003-0.412,1.301-1.122,1.961-1.122c21.401,0,42.802,0,64.204,0c0.458,0,0.681,0.08,0.749,0.2
	C142.669,360.577,143.021,360.673,143.021,360.915z M78.165,415.34c20.653,0,41.306,0,61.959,0c0-17.846,0-35.693,0-53.539
	c-20.653,0-41.306,0-61.959,0C78.165,379.647,78.165,397.494,78.165,415.34z M143.021,339.251c0,4.417,0,8.834,0,13.251
	c0,0.77-1.764,1.232-2.538,1.067c-0.074,0.012-0.146,0.021-0.21,0.021c-21.145,0-42.29,0-63.435,0c-0.032,0-0.063,0-0.096,0
	c-0.161,0-0.321,0-0.482,0c-0.35,0.033-0.646,0-0.824-0.095c-0.003-0.001-0.006-0.003-0.009-0.004
	c-0.062-0.035-0.102-0.079-0.125-0.133c-0.002-0.006-0.007-0.011-0.008-0.017c-0.007-0.022-0.029-0.038-0.029-0.063
	c0-4.417,0-8.834,0-13.251c0-0.453,0.611-0.797,1.272-0.974c0.264-0.102,0.522-0.169,0.721-0.169c21.401,0,42.802,0,64.204,0
	c0.236,0,0.409,0.021,0.533,0.058C142.554,338.886,143.021,338.973,143.021,339.251z M78.165,352.181c20.653,0,41.306,0,61.959,0
	c0-3.962,0-7.924,0-11.887c-20.653,0-41.306,0-61.959,0C78.165,344.257,78.165,348.219,78.165,352.181z M231.082,360.915
	c0,18.254,0,36.509,0,54.764c0,0.785-1.836,1.251-2.583,1.057c-0.058,0.008-0.114,0.014-0.165,0.014c-21.286,0-42.573,0-63.859,0
	c-0.545,0.075-1.009,0.01-1.106-0.216c-0.001-0.002-0.003-0.004-0.003-0.007c-0.01-0.025-0.037-0.042-0.037-0.072
	c0-18.254,0-36.509,0-54.764c0-0.061,0.011-0.119,0.032-0.175c-0.001-0.412,1.3-1.124,1.961-1.124c21.401,0,42.802,0,64.204,0
	c0.458,0,0.681,0.08,0.749,0.2C230.729,360.577,231.082,360.673,231.082,360.915z M166.226,415.34c20.653,0,41.306,0,61.959,0
	c0-17.846,0-35.693,0-53.539c-20.653,0-41.306,0-61.959,0C166.226,379.647,166.226,397.494,166.226,415.34z M231.082,339.251
	c0,4.417,0,8.834,0,13.251c0,0.77-1.764,1.232-2.538,1.067c-0.075,0.012-0.146,0.021-0.21,0.021c-21.337,0-42.674,0-64.012,0
	c-0.191,0.018-0.371,0.02-0.523,0c-0.02-0.002-0.037-0.006-0.056-0.009c-0.249-0.041-0.416-0.138-0.416-0.303
	c0-4.417,0-8.834,0-13.251c0-0.369,0.405-0.667,0.913-0.86c0.071-0.027,0.146-0.051,0.22-0.074c0.046-0.015,0.091-0.027,0.138-0.039
	c0.264-0.102,0.522-0.169,0.722-0.169c21.401,0,42.802,0,64.204,0c0.236,0,0.409,0.021,0.533,0.058
	C230.615,338.886,231.082,338.973,231.082,339.251z M166.226,340.294c0,3.962,0,7.924,0,11.887c20.653,0,41.306,0,61.959,0
	c0-3.962,0-7.924,0-11.887C207.532,340.294,186.879,340.294,166.226,340.294z M316.932,360.915c0,18.254,0,36.509,0,54.764
	c0,0.785-1.836,1.251-2.583,1.058c-0.058,0.008-0.113,0.014-0.164,0.014c-21.287,0-42.573,0-63.859,0
	c-0.544,0.075-1.007,0.01-1.106-0.215c-0.001-0.003-0.003-0.006-0.004-0.009c-0.01-0.024-0.036-0.042-0.036-0.071
	c0-18.254,0-36.509,0-54.764c0-0.06,0.012-0.118,0.032-0.173c-0.005-0.412,1.298-1.125,1.96-1.125c21.401,0,42.803,0,64.204,0
	c0.458,0,0.681,0.08,0.749,0.2C316.58,360.577,316.932,360.673,316.932,360.915z M252.076,415.34c20.653,0,41.306,0,61.958,0
	c0-17.846,0-35.693,0-53.539c-20.653,0-41.306,0-61.958,0C252.076,379.647,252.076,397.494,252.076,415.34z M316.932,339.251
	c0,4.417,0,8.834,0,13.251c0,0.77-1.764,1.232-2.538,1.067c-0.074,0.012-0.146,0.021-0.21,0.021c-21.115,0-42.23,0-63.346,0
	c-0.032,0-0.063,0-0.096,0c-0.19,0-0.38,0-0.57,0c-0.356,0.033-0.658,0-0.834-0.1c-0.003-0.002-0.007-0.003-0.01-0.005
	c-0.035-0.021-0.065-0.042-0.087-0.069c-0.004-0.005-0.004-0.012-0.008-0.017c-0.026-0.037-0.055-0.072-0.055-0.121
	c0-4.417,0-8.834,0-13.251c0-0.452,0.61-0.796,1.27-0.973c0.264-0.102,0.523-0.169,0.723-0.169c21.401,0,42.803,0,64.204,0
	c0.236,0,0.409,0.021,0.533,0.058C316.465,338.886,316.932,338.973,316.932,339.251z M252.076,352.181c20.653,0,41.306,0,61.958,0
	c0-3.962,0-7.924,0-11.887c-20.653,0-41.306,0-61.958,0C252.076,344.257,252.076,348.219,252.076,352.181z M404.994,360.915
	c0,18.254,0,36.509,0,54.764c0,0.785-1.836,1.251-2.583,1.057c-0.058,0.008-0.114,0.014-0.165,0.014c-21.286,0-42.573,0-63.859,0
	c-0.545,0.075-1.009,0.01-1.106-0.216c-0.001-0.002-0.002-0.004-0.003-0.007c-0.01-0.025-0.037-0.042-0.037-0.072
	c0-18.254,0-36.509,0-54.764c0-0.061,0.011-0.119,0.032-0.175c-0.001-0.412,1.3-1.124,1.961-1.124c21.401,0,42.802,0,64.204,0
	c0.458,0,0.68,0.08,0.749,0.2C404.641,360.577,404.994,360.673,404.994,360.915z M340.137,415.34c20.653,0,41.306,0,61.959,0
	c0-17.846,0-35.693,0-53.539c-20.653,0-41.306,0-61.959,0C340.137,379.647,340.137,397.494,340.137,415.34z M404.994,339.251
	c0,4.417,0,8.834,0,13.251c0,0.77-1.764,1.232-2.538,1.067c-0.075,0.012-0.146,0.021-0.21,0.021c-21.337,0-42.674,0-64.012,0
	c-0.167,0.016-0.318,0.013-0.458,0.001l-0.033,0v-0.005c-0.233-0.025-0.398-0.095-0.46-0.213c-0.002-0.004-0.004-0.008-0.006-0.013
	c-0.012-0.027-0.038-0.049-0.038-0.082c0-4.417,0-8.834,0-13.251c0-0.39,0.454-0.699,1.002-0.891
	c0.044-0.015,0.088-0.031,0.133-0.044s0.09-0.026,0.136-0.038c0.263-0.102,0.522-0.169,0.722-0.169c21.401,0,42.802,0,64.204,0
	c0.236,0,0.409,0.021,0.533,0.058C404.526,338.886,404.994,338.973,404.994,339.251z M340.137,340.294c0,3.962,0,7.924,0,11.887
	c20.653,0,41.306,0,61.959,0c0-3.962,0-7.924,0-11.887C381.443,340.294,360.791,340.294,340.137,340.294z M119.284,187.335
	c-3.314,3.366-6.364,6.985-9.961,10.063c-1.592,1.362-3.701,3.018-5.921,2.918c-3.233-0.146-4.416-5.442-5.027-7.746
	c-0.373-1.405-3.271-0.629-2.897,0.776c1.391,5.24,4.558,11.285,10.921,8.541c6.279-2.708,10.663-8.882,15.332-13.622
	C123.019,186.956,120.237,186.367,119.284,187.335z M210.477,285.16c-3.314,3.366-6.363,6.985-9.961,10.063
	c-1.592,1.362-3.701,3.018-5.921,2.918c-3.233-0.146-4.416-5.442-5.027-7.746c-0.373-1.405-3.271-0.629-2.897,0.776
	c1.391,5.241,4.557,11.285,10.921,8.541c6.279-2.708,10.663-8.881,15.331-13.622C214.211,284.78,211.43,284.192,210.477,285.16z
	 M384.021,378.563c-3.314,3.366-6.363,6.986-9.961,10.063c-1.593,1.362-3.701,3.018-5.922,2.918
	c-3.232-0.146-4.416-5.443-5.027-7.746c-0.373-1.405-3.271-0.629-2.897,0.776c1.39,5.24,4.557,11.286,10.921,8.541
	c6.28-2.708,10.664-8.881,15.332-13.623C387.755,378.184,384.974,377.596,384.021,378.563z M206.056,383.537
	c-3.314,3.366-6.363,6.986-9.961,10.063c-1.592,1.362-3.701,3.018-5.921,2.918c-3.233-0.146-4.416-5.443-5.027-7.747
	c-0.373-1.405-3.271-0.629-2.897,0.776c1.39,5.241,4.557,11.286,10.921,8.542c6.279-2.708,10.663-8.882,15.331-13.623
	C209.79,383.157,207.009,382.569,206.056,383.537z M207.279,190.973c-4.211,2.654-8.948,4.242-13.417,6.287
	c-2.132-2.203-3.859-4.716-4.848-7.638c-0.434-1.284-3.322-0.478-2.897,0.776c1.054,3.116,2.884,5.795,5.139,8.143
	c-2.563,1.353-4.98,2.965-7.081,5.166c-1.211,1.27,1.618,1.384,2.359,0.607c1.785-1.871,3.833-3.3,6.013-4.51
	c3.455,3.207,7.657,5.766,11.582,7.972c1.064,0.598,3.632-0.855,2.244-1.635c-3.775-2.121-7.88-4.57-11.242-7.654
	c4.634-2.179,9.641-3.754,13.988-6.494C210.784,190.945,208.297,190.331,207.279,190.973z M291.84,282.719
	c-4.211,2.654-8.949,4.242-13.417,6.287c-2.132-2.203-3.86-4.716-4.848-7.638c-0.434-1.284-3.322-0.478-2.897,0.776
	c1.053,3.116,2.884,5.795,5.139,8.143c-2.563,1.353-4.981,2.965-7.081,5.166c-1.211,1.27,1.618,1.384,2.359,0.607
	c1.785-1.87,3.833-3.299,6.013-4.51c3.455,3.207,7.657,5.766,11.583,7.971c1.064,0.598,3.632-0.855,2.244-1.635
	c-3.776-2.121-7.88-4.569-11.242-7.653c4.635-2.179,9.642-3.754,13.988-6.494C295.345,282.691,292.859,282.077,291.84,282.719z
	 M301.568,188.28c-10.813-0.043-21.611-0.696-32.424-0.736c-1.308-0.005-2.996,1.977-1.036,1.984
	c10.813,0.041,21.611,0.693,32.424,0.736C301.84,190.27,303.528,188.288,301.568,188.28z M289.782,200.084c-5.65,0-11.3,0-16.949,0
	c-1.29,0-3.002,1.959-1.043,1.959c5.65,0,11.3,0,16.949,0C290.028,202.043,291.741,200.084,289.782,200.084z M289.358,211.874
	c-5.444-2.181-11.134-2.293-16.92-2.296c-1.661-0.001-2.22,2.132-0.254,2.133c5.326,0.003,10.494,0.119,15.503,2.125
	C288.921,214.33,291.072,212.561,289.358,211.874z M392.209,283.343c-10.813-0.043-21.611-0.696-32.424-0.737
	c-1.308-0.005-2.996,1.977-1.036,1.984c10.813,0.041,21.612,0.694,32.424,0.737C392.481,285.333,394.168,283.351,392.209,283.343z
	 M380.422,295.146c-5.65,0-11.299,0-16.949,0c-1.29,0-3.002,1.959-1.043,1.959c5.65,0,11.299,0,16.949,0
	C380.668,297.105,382.381,295.146,380.422,295.146z M379.999,306.935c-5.444-2.181-11.134-2.293-16.92-2.296
	c-1.661-0.001-2.22,2.132-0.254,2.133c5.326,0.003,10.494,0.119,15.503,2.125C379.562,309.391,381.713,307.622,379.999,306.935z
	 M124.709,375.641c-10.813-0.043-21.612-0.696-32.425-0.736c-1.308-0.005-2.996,1.977-1.036,1.984
	c10.813,0.041,21.612,0.693,32.425,0.736C124.981,377.63,126.669,375.648,124.709,375.641z M112.922,387.444
	c-5.65,0-11.3,0-16.949,0c-1.29,0-3.002,1.959-1.043,1.959c5.65,0,11.3,0,16.949,0C113.169,389.403,114.881,387.444,112.922,387.444
	z M112.499,399.233c-5.444-2.18-11.134-2.292-16.92-2.295c-1.661-0.001-2.22,2.132-0.254,2.133
	c5.326,0.003,10.494,0.118,15.503,2.125C112.062,401.689,114.213,399.919,112.499,399.233z M382.823,181.332
	c4.601,7.802,9.316,15.831,12.528,24.318c0.119,0.314-0.354,0.646-0.566,0.758c-5.339,2.829-10.979,3.817-16.54,6.054
	c-0.25,0.101-0.518,0.147-0.773,0.154c-0.288,0.239-0.858,0.428-1.404,0.528c-0.239,0.128-0.515,0.225-0.805,0.256
	c-6.045,0.649-13.302-0.39-16.333-6.221c-0.375-0.062-0.692-0.237-0.835-0.57c-1.635-3.819-3.273-7.644-4.748-11.529
	c-0.544-1.434-2.421-4.543-0.92-5.859c0.147-0.129,0.322-0.22,0.507-0.283c0.167-0.205,0.479-0.396,0.999-0.506
	c9.17-1.933,18.222-4.908,27.266-7.369C381.698,180.928,382.512,180.805,382.823,181.332z M374.638,212.027
	c-0.418-2.59-1.598-4.982-1.973-7.598c-3.365,1.628-6.917,2.373-10.642,2.339C364.548,211.072,369.807,212.319,374.638,212.027z
	 M388.84,198.377c-2.682-5.305-5.548-10.521-8.556-15.65c-8.458,2.343-16.926,5.062-25.497,6.904c0,0.231-0.132,0.501-0.47,0.797
	c0.792-0.694,0.403-0.52,0.7,0.422c0.163,0.515,0.33,1.027,0.514,1.535c0.498,1.375,1.022,2.739,1.566,4.096
	c1.181,2.943,2.408,5.866,3.653,8.781c0.263,0.023,0.483,0.103,0.615,0.255c4.248,0.497,7.872-0.118,11.541-2.434
	c0.226-0.142,2.515-0.959,2.548-0.383c0.171,3,1.613,5.65,2.082,8.553c3.561-1.365,7.36-1.973,10.864-3.387
	c2.737-1.104,4.206-1.349,2.944-4.191C390.55,201.891,389.721,200.122,388.84,198.377z M125.877,281.835
	c1.524,8.928,3.076,18.108,3.059,27.184c-0.001,0.729-1.085,1.052-1.665,1.124c-5.989,0.745-11.625-0.343-17.612-0.231
	c-0.506,0.009-0.735-0.088-0.785-0.237c-0.514,0.121-1.07,0.167-1.404,0.117c-0.178,0.025-0.339,0.028-0.461-0.003
	c-5.723-1.483-12.08-5.069-12.604-11.534c-0.315-0.132-0.541-0.377-0.557-0.768c-0.16-3.865-0.368-7.741-0.337-11.61
	c0.014-1.708-0.386-4.103,1.616-4.752c0.468-0.152,0.841-0.129,1.109-0.008c0.38-0.154,0.755-0.254,0.99-0.231
	c8.659,0.814,18.685,0.403,27.783,0.578C125.25,281.466,125.819,281.495,125.877,281.835z M107.537,307.944
	c0.405-2.54,0.171-5.157,0.869-7.681c-3.777,0.582-7.333,0.237-10.814-1.037C98.812,303.702,103.125,306.532,107.537,307.944z
	 M126.022,308.819c-0.078-6.606-1.045-13.233-2.022-19.752c-0.305-2.034-0.619-4.068-0.961-6.097
	c-0.615-0.012-1.23-0.023-1.845-0.036c-8.146-0.159-16.49,0.179-24.625-0.486c-0.677,1.52-0.135,4.632-0.1,6.12
	c0.063,2.675,0.169,5.348,0.278,8.021c0.265,0.038,0.449,0.139,0.491,0.312c4.148,2.194,8.31,3.149,12.984,2.189
	c0.177-0.037,1.289-0.241,1.142,0.214c-0.976,3.031-0.439,6.21-1.218,9.245c0.241-0.096,0.477-0.159,0.671-0.162
	C115.966,308.291,120.918,309.163,126.022,308.819z M295.551,375.792c1.524,8.928,3.076,18.107,3.059,27.183
	c-0.001,0.729-1.085,1.052-1.665,1.124c-5.99,0.745-11.625-0.342-17.613-0.23c-0.507,0.009-0.735-0.089-0.785-0.238
	c-0.514,0.121-1.07,0.167-1.404,0.117c-0.178,0.025-0.339,0.028-0.461-0.003c-5.723-1.483-12.079-5.068-12.604-11.532
	c-0.316-0.132-0.542-0.377-0.558-0.769c-0.16-3.866-0.368-7.741-0.336-11.611c0.014-1.705-0.387-4.104,1.616-4.752
	c0.467-0.151,0.841-0.128,1.109-0.007c0.38-0.154,0.755-0.254,0.99-0.232c8.661,0.805,18.683,0.403,27.783,0.578
	C294.925,375.423,295.493,375.452,295.551,375.792z M277.211,401.9c0.406-2.54,0.172-5.157,0.869-7.68
	c-3.777,0.582-7.333,0.237-10.814-1.037C268.486,397.659,272.8,400.488,277.211,401.9z M295.697,402.775
	c-0.079-6.606-1.045-13.233-2.023-19.751c-0.305-2.035-0.619-4.068-0.961-6.097c-0.615-0.012-1.23-0.023-1.845-0.036
	c-8.148-0.159-16.488,0.171-24.624-0.486c-0.678,1.52-0.136,4.632-0.101,6.12c0.063,2.674,0.168,5.347,0.278,8.02
	c0.265,0.038,0.45,0.139,0.492,0.312c4.148,2.194,8.31,3.149,12.984,2.19c0.177-0.037,1.289-0.241,1.142,0.214
	c-0.976,3.031-0.439,6.209-1.218,9.245c0.24-0.096,0.477-0.159,0.671-0.162C285.641,402.248,290.593,403.12,295.697,402.775z" fill="#000000"></path>
</svg>